<?xml version="1.0" encoding="UTF-8"?>
<!DOCTYPE svg PUBLIC "-//W3C//DTD SVG 1.1//EN" "http://www.w3.org/Graphics/SVG/1.1/DTD/svg11.dtd">
<svg xmlns="http://www.w3.org/2000/svg" version="1.1" width="512px" height="512px" style="shape-rendering:geometricPrecision; text-rendering:geometricPrecision; image-rendering:optimizeQuality; fill-rule:evenodd; clip-rule:evenodd" xmlns:xlink="http://www.w3.org/1999/xlink">
<g><path style="opacity:0.975" fill="#010000" d="M 123.5,-0.5 C 211.5,-0.5 299.5,-0.5 387.5,-0.5C 413.037,6.2061 428.537,22.5394 434,48.5C 434.667,155.833 434.667,263.167 434,370.5C 432.841,373.493 430.675,375.16 427.5,375.5C 424.492,375.123 421.992,373.789 420,371.5C 419.5,358.171 419.333,344.837 419.5,331.5C 408.5,331.5 397.5,331.5 386.5,331.5C 288.167,331.5 189.833,331.5 91.5,331.5C 91.0374,363.208 91.5374,394.875 93,426.5C 97.5,443 108,453.5 124.5,458C 204.499,458.5 284.499,458.667 364.5,458.5C 401.361,460.813 419.861,443.479 420,406.5C 421.992,404.211 424.492,402.877 427.5,402.5C 430.675,402.84 432.841,404.507 434,407.5C 436.297,439.099 422.797,460.599 393.5,472C 389.886,472.945 386.219,473.612 382.5,474C 352.835,474.5 323.169,474.667 293.5,474.5C 293.667,485.838 293.5,497.172 293,508.5C 291.955,509.373 291.122,510.373 290.5,511.5C 287.5,511.5 284.5,511.5 281.5,511.5C 279.412,509.664 278.079,507.331 277.5,504.5C 278.494,494.347 278.828,484.014 278.5,473.5C 263.167,473.5 247.833,473.5 232.5,473.5C 232.172,484.014 232.506,494.347 233.5,504.5C 232.921,507.331 231.588,509.664 229.5,511.5C 226.833,511.5 224.167,511.5 221.5,511.5C 219.856,510.684 218.69,509.35 218,507.5C 217.5,496.505 217.333,485.505 217.5,474.5C 185.468,474.947 153.468,474.447 121.5,473C 96.2515,466.417 81.4182,450.251 77,424.5C 76.3333,329.5 76.3333,234.5 77,139.5C 78.1585,136.507 80.3252,134.84 83.5,134.5C 86.5076,134.877 89.0076,136.211 91,138.5C 91.5,197.832 91.6667,257.166 91.5,316.5C 189.833,316.5 288.167,316.5 386.5,316.5C 397.5,316.5 408.5,316.5 419.5,316.5C 419.667,228.166 419.5,139.833 419,51.5C 415.662,33.8269 405.495,21.9936 388.5,16C 380.219,14.7133 371.886,14.2133 363.5,14.5C 283.13,14.0142 202.797,14.5142 122.5,16C 105.505,21.9936 95.3379,33.8269 92,51.5C 91.6667,68.1667 91.3333,84.8333 91,101.5C 89.4612,104.521 86.9612,105.854 83.5,105.5C 80.4392,105.556 78.2725,104.222 77,101.5C 76.3333,83.8333 76.3333,66.1667 77,48.5C 82.4628,22.5394 97.9628,6.2061 123.5,-0.5 Z"/></g>
<g><path style="opacity:1" fill="#d8dbeb" d="M 363.5,14.5 C 375.709,22.5488 383.209,33.8821 386,48.5C 386.5,137.833 386.667,227.166 386.5,316.5C 288.167,316.5 189.833,316.5 91.5,316.5C 91.6667,257.166 91.5,197.832 91,138.5C 89.0076,136.211 86.5076,134.877 83.5,134.5C 83.5,124.833 83.5,115.167 83.5,105.5C 86.9612,105.854 89.4612,104.521 91,101.5C 91.3333,84.8333 91.6667,68.1667 92,51.5C 95.3379,33.8269 105.505,21.9936 122.5,16C 202.797,14.5142 283.13,14.0142 363.5,14.5 Z"/></g>
<g><path style="opacity:1" fill="#c7c9d8" d="M 363.5,14.5 C 371.886,14.2133 380.219,14.7133 388.5,16C 405.495,21.9936 415.662,33.8269 419,51.5C 419.5,139.833 419.667,228.166 419.5,316.5C 408.5,316.5 397.5,316.5 386.5,316.5C 386.667,227.166 386.5,137.833 386,48.5C 383.209,33.8821 375.709,22.5488 363.5,14.5 Z"/></g>
<g><path style="opacity:1" fill="#050202" d="M 365.5,155.5 C 362.5,155.5 359.5,155.5 356.5,155.5C 356.5,193.5 356.5,231.5 356.5,269.5C 355.692,276.131 352.358,280.965 346.5,284C 338.245,285.572 329.911,285.905 321.5,285C 311.175,279.175 307.175,270.341 309.5,258.5C 273.5,258.5 237.5,258.5 201.5,258.5C 203.818,269.345 200.485,277.845 191.5,284C 183.23,285.537 174.897,285.87 166.5,285C 159.794,282.428 155.794,277.595 154.5,270.5C 154.5,232.167 154.5,193.833 154.5,155.5C 151.167,155.5 147.833,155.5 144.5,155.5C 137.318,153.819 132.484,149.486 130,142.5C 128.409,129.223 128.076,115.89 129,102.5C 133.242,90.4587 141.742,85.1254 154.5,86.5C 153.29,63.5544 163.623,48.721 185.5,42C 231.167,41.3333 276.833,41.3333 322.5,42C 339.912,44.7453 351.078,54.5786 356,71.5C 356.499,76.4889 356.666,81.4889 356.5,86.5C 369.283,85.1358 377.783,90.4691 382,102.5C 382.924,115.89 382.591,129.223 381,142.5C 378.408,149.927 373.241,154.26 365.5,155.5 Z"/></g>
<g><path style="opacity:1" fill="#fe5656" d="M 298.5,56.5 C 303.346,60.8518 306.679,66.1852 308.5,72.5C 262.495,72.8333 216.495,72.4999 170.5,71.5C 173.761,64.4073 179.094,59.574 186.5,57C 223.832,56.5 261.165,56.3333 298.5,56.5 Z"/></g>
<g><path style="opacity:1" fill="#ef3737" d="M 298.5,56.5 C 306.84,56.3336 315.173,56.5003 323.5,57C 331.475,59.1429 337.142,63.9762 340.5,71.5C 329.854,72.4987 319.187,72.832 308.5,72.5C 306.679,66.1852 303.346,60.8518 298.5,56.5 Z"/></g>
<g><path style="opacity:1" fill="#8582a2" d="M 153.5,101.5 C 153.5,114.5 153.5,127.5 153.5,140.5C 151.5,140.5 149.5,140.5 147.5,140.5C 145.589,140.426 144.422,139.426 144,137.5C 143.333,126.5 143.333,115.5 144,104.5C 146.546,101.814 149.713,100.814 153.5,101.5 Z"/></g>
<g><path style="opacity:1" fill="#535266" d="M 153.5,101.5 C 154.496,114.656 154.829,127.99 154.5,141.5C 151.941,141.802 149.607,141.468 147.5,140.5C 149.5,140.5 151.5,140.5 153.5,140.5C 153.5,127.5 153.5,114.5 153.5,101.5 Z"/></g>
<g><path style="opacity:1" fill="#535266" d="M 357.5,101.5 C 357.5,114.5 357.5,127.5 357.5,140.5C 359.5,140.5 361.5,140.5 363.5,140.5C 361.393,141.468 359.059,141.802 356.5,141.5C 356.171,127.99 356.504,114.656 357.5,101.5 Z"/></g>
<g><path style="opacity:1" fill="#8582a2" d="M 357.5,101.5 C 361.287,100.814 364.454,101.814 367,104.5C 367.667,115.5 367.667,126.5 367,137.5C 366.578,139.426 365.411,140.426 363.5,140.5C 361.5,140.5 359.5,140.5 357.5,140.5C 357.5,127.5 357.5,114.5 357.5,101.5 Z"/></g>
<g><path style="opacity:1" fill="#858790" d="M 144.5,155.5 C 147.833,155.5 151.167,155.5 154.5,155.5C 154.5,193.833 154.5,232.167 154.5,270.5C 153.501,232.67 153.168,194.67 153.5,156.5C 150.287,156.81 147.287,156.477 144.5,155.5 Z"/></g>
<g><path style="opacity:1" fill="#858791" d="M 365.5,155.5 C 363.052,156.473 360.385,156.806 357.5,156.5C 357.832,194.337 357.498,232.004 356.5,269.5C 356.5,231.5 356.5,193.5 356.5,155.5C 359.5,155.5 362.5,155.5 365.5,155.5 Z"/></g>
<g><path style="opacity:1" fill="#71838b" d="M 169.5,87.5 C 169.5,87.8333 169.5,88.1667 169.5,88.5C 169.5,114.833 169.5,141.167 169.5,167.5C 216.167,167.5 262.833,167.5 309.5,167.5C 320.167,167.5 330.833,167.5 341.5,167.5C 341.5,140.833 341.5,114.167 341.5,87.5C 342.498,114.328 342.831,141.328 342.5,168.5C 284.5,168.5 226.5,168.5 168.5,168.5C 168.169,141.328 168.502,114.328 169.5,87.5 Z"/></g>
<g><path style="opacity:1" fill="#b7e6f9" d="M 169.5,88.5 C 169.5,88.1667 169.5,87.8333 169.5,87.5C 226.833,87.5 284.167,87.5 341.5,87.5C 341.5,114.167 341.5,140.833 341.5,167.5C 330.833,167.5 320.167,167.5 309.5,167.5C 309.5,141.167 309.5,114.833 309.5,88.5C 262.833,88.5 216.167,88.5 169.5,88.5 Z"/></g>
<g><path style="opacity:1" fill="#d5f2ff" d="M 169.5,88.5 C 216.167,88.5 262.833,88.5 309.5,88.5C 309.5,114.833 309.5,141.167 309.5,167.5C 262.833,167.5 216.167,167.5 169.5,167.5C 169.5,141.167 169.5,114.833 169.5,88.5 Z"/></g>
<g><path style="opacity:1" fill="#fd5656" d="M 169.5,183.5 C 216.167,183.5 262.833,183.5 309.5,183.5C 309.174,192.349 309.507,201.016 310.5,209.5C 310.5,211.833 310.5,214.167 310.5,216.5C 309.507,225.318 309.173,234.318 309.5,243.5C 262.833,243.5 216.167,243.5 169.5,243.5C 169.5,240.5 169.5,237.5 169.5,234.5C 193.764,236.42 202.93,225.753 197,202.5C 193.275,196.943 188.108,193.609 181.5,192.5C 177.702,191.517 173.702,191.183 169.5,191.5C 169.5,188.833 169.5,186.167 169.5,183.5 Z"/></g>
<g><path style="opacity:1" fill="#f03737" d="M 309.5,183.5 C 320.167,183.5 330.833,183.5 341.5,183.5C 341.5,186.167 341.5,188.833 341.5,191.5C 336.968,191.182 332.634,191.515 328.5,192.5C 318.622,194.044 312.622,199.711 310.5,209.5C 309.507,201.016 309.174,192.349 309.5,183.5 Z"/></g>
<g><path style="opacity:1" fill="#933232" d="M 169.5,183.5 C 169.5,186.167 169.5,188.833 169.5,191.5C 173.702,191.183 177.702,191.517 181.5,192.5C 177.167,192.5 172.833,192.5 168.5,192.5C 168.19,189.287 168.523,186.287 169.5,183.5 Z"/></g>
<g><path style="opacity:1" fill="#8b2020" d="M 341.5,183.5 C 342.477,186.287 342.81,189.287 342.5,192.5C 337.833,192.5 333.167,192.5 328.5,192.5C 332.634,191.515 336.968,191.182 341.5,191.5C 341.5,188.833 341.5,186.167 341.5,183.5 Z"/></g>
<g><path style="opacity:1" fill="#faec83" d="M 169.5,207.5 C 173.514,207.334 177.514,207.501 181.5,208C 183.91,208.758 184.91,210.425 184.5,213C 184.815,215.704 183.815,217.704 181.5,219C 177.514,219.499 173.514,219.666 169.5,219.5C 169.5,215.5 169.5,211.5 169.5,207.5 Z"/></g>
<g><path style="opacity:1" fill="#f7e981" d="M 327.5,207.5 C 332.167,207.5 336.833,207.5 341.5,207.5C 341.5,211.5 341.5,215.5 341.5,219.5C 336.372,219.888 331.372,219.388 326.5,218C 323.811,214.241 324.145,210.741 327.5,207.5 Z"/></g>
<g><path style="opacity:1" fill="#040101" d="M 223.5,216.5 C 244.836,216.333 266.169,216.5 287.5,217C 291.701,220.025 292.535,223.859 290,228.5C 289.097,229.701 287.931,230.535 286.5,231C 265.5,231.667 244.5,231.667 223.5,231C 218.202,226.092 218.202,221.258 223.5,216.5 Z"/></g>
<g><path style="opacity:1" fill="#ed3636" d="M 310.5,216.5 C 311.831,225.998 317.165,231.831 326.5,234C 331.489,234.499 336.489,234.666 341.5,234.5C 341.5,237.5 341.5,240.5 341.5,243.5C 330.833,243.5 320.167,243.5 309.5,243.5C 309.173,234.318 309.507,225.318 310.5,216.5 Z"/></g>
<g><path style="opacity:1" fill="#8582a1" d="M 169.5,258.5 C 175.167,258.5 180.833,258.5 186.5,258.5C 186.665,262.182 186.499,265.848 186,269.5C 180.667,270.833 175.333,270.833 170,269.5C 169.501,265.848 169.335,262.182 169.5,258.5 Z"/></g>
<g><path style="opacity:1" fill="#8582a1" d="M 324.5,258.5 C 330.167,258.5 335.833,258.5 341.5,258.5C 341.665,262.182 341.499,265.848 341,269.5C 335.667,270.833 330.333,270.833 325,269.5C 324.501,265.848 324.335,262.182 324.5,258.5 Z"/></g>
<g><path style="opacity:1" fill="#fd5656" d="M 386.5,331.5 C 386.667,361.835 386.5,392.168 386,422.5C 383.682,437.481 376.515,449.481 364.5,458.5C 284.499,458.667 204.499,458.5 124.5,458C 108,453.5 97.5,443 93,426.5C 91.5374,394.875 91.0374,363.208 91.5,331.5C 189.833,331.5 288.167,331.5 386.5,331.5 Z"/></g>
<g><path style="opacity:1" fill="#ef3838" d="M 386.5,331.5 C 397.5,331.5 408.5,331.5 419.5,331.5C 419.333,344.837 419.5,358.171 420,371.5C 421.992,373.789 424.492,375.123 427.5,375.5C 427.5,384.5 427.5,393.5 427.5,402.5C 424.492,402.877 421.992,404.211 420,406.5C 419.861,443.479 401.361,460.813 364.5,458.5C 376.515,449.481 383.682,437.481 386,422.5C 386.5,392.168 386.667,361.835 386.5,331.5 Z"/></g>
<g><path style="opacity:1" fill="#040101" d="M 156.5,355.5 C 166.172,355.334 175.839,355.5 185.5,356C 201.405,363.046 205.405,374.379 197.5,390C 208.533,400.016 210.366,411.516 203,424.5C 198.873,430.148 193.373,433.648 186.5,435C 176.833,435.667 167.167,435.667 157.5,435C 155.622,433.457 154.122,431.624 153,429.5C 152.333,406.167 152.333,382.833 153,359.5C 154.032,357.973 155.199,356.64 156.5,355.5 Z"/></g>
<g><path style="opacity:1" fill="#020000" d="M 227.5,355.5 C 231.603,354.769 235.103,355.769 238,358.5C 238.04,376.566 238.706,394.566 240,412.5C 246.759,421.135 254.926,422.635 264.5,417C 266.81,415.363 268.31,413.196 269,410.5C 269.333,393.5 269.667,376.5 270,359.5C 274.572,354.188 279.239,354.188 284,359.5C 284.667,376.833 284.667,394.167 284,411.5C 281.087,424.078 273.254,431.578 260.5,434C 246.404,436.528 235.237,432.028 227,420.5C 226.333,418.5 225.667,416.5 225,414.5C 224.333,395.833 224.333,377.167 225,358.5C 226.045,357.627 226.878,356.627 227.5,355.5 Z"/></g>
<g><path style="opacity:1" fill="#070201" d="M 321.5,355.5 C 333.174,353.919 343.841,356.419 353.5,363C 357.681,367.97 357.014,372.303 351.5,376C 347.516,377.115 344.182,376.115 341.5,373C 336.028,370.715 330.362,370.048 324.5,371C 319.008,373.942 318.342,377.609 322.5,382C 330.662,384.943 338.662,388.276 346.5,392C 358.445,401.317 360.612,412.483 353,425.5C 342.931,435.775 331.098,438.275 317.5,433C 311.157,430.645 305.991,426.811 302,421.5C 300.257,415.243 302.59,411.576 309,410.5C 314.224,414.037 319.724,417.204 325.5,420C 331.877,421.521 337.377,420.021 342,415.5C 343.163,410.655 341.663,406.821 337.5,404C 329.338,401.057 321.338,397.724 313.5,394C 301.579,382.648 301.579,371.314 313.5,360C 316.099,358.205 318.766,356.705 321.5,355.5 Z"/></g>
<g><path style="opacity:1" fill="#ed5151" d="M 167.5,369.5 C 172.179,369.334 176.845,369.501 181.5,370C 188.154,375.049 188.154,380.049 181.5,385C 176.845,385.499 172.179,385.666 167.5,385.5C 167.5,380.167 167.5,374.833 167.5,369.5 Z"/></g>
<g><path style="opacity:1" fill="#f85454" d="M 167.5,400.5 C 173.842,400.334 180.175,400.5 186.5,401C 192.169,404.512 193.669,409.346 191,415.5C 189.457,417.378 187.624,418.878 185.5,420C 179.509,420.499 173.509,420.666 167.5,420.5C 167.5,413.833 167.5,407.167 167.5,400.5 Z"/></g>
<g><path style="opacity:1" fill="#605e75" d="M 277.5,504.5 C 277.5,494.5 277.5,484.5 277.5,474.5C 262.833,474.5 248.167,474.5 233.5,474.5C 233.5,484.5 233.5,494.5 233.5,504.5C 232.506,494.347 232.172,484.014 232.5,473.5C 247.833,473.5 263.167,473.5 278.5,473.5C 278.828,484.014 278.494,494.347 277.5,504.5 Z"/></g>
<g><path style="opacity:1" fill="#8986a5" d="M 277.5,504.5 C 262.833,504.5 248.167,504.5 233.5,504.5C 233.5,494.5 233.5,484.5 233.5,474.5C 248.167,474.5 262.833,474.5 277.5,474.5C 277.5,484.5 277.5,494.5 277.5,504.5 Z"/></g>
</svg>
