<?xml version="1.0" encoding="UTF-8"?>
<!DOCTYPE svg PUBLIC "-//W3C//DTD SVG 1.1//EN" "http://www.w3.org/Graphics/SVG/1.1/DTD/svg11.dtd">
<svg xmlns="http://www.w3.org/2000/svg" version="1.1" width="512px" height="512px" style="shape-rendering:geometricPrecision; text-rendering:geometricPrecision; image-rendering:optimizeQuality; fill-rule:evenodd; clip-rule:evenodd" xmlns:xlink="http://www.w3.org/1999/xlink">
<g><path style="opacity:0.98" fill="#000000" d="M 235.5,15.5 C 319.154,10.9016 382.321,44.2349 425,115.5C 448.738,161.411 454.072,209.411 441,259.5C 432.858,287.445 421.192,313.778 406,338.5C 366.567,398.273 318.4,450.106 261.5,494C 255.488,496.582 250.155,495.582 245.5,491C 186.705,445.552 137.871,391.385 99,328.5C 80.3589,296.91 68.6922,262.91 64,226.5C 59.2155,143.22 92.3822,80.3866 163.5,38C 186.262,26.1496 210.262,18.6496 235.5,15.5 Z M 252.5,63.5 C 312.537,65.5835 356.703,92.9169 385,145.5C 411.39,210.425 399.556,267.258 349.5,316C 301.657,353.739 249.657,360.739 193.5,337C 133.027,303.758 106.527,252.592 114,183.5C 123.695,135.585 150.195,100.419 193.5,78C 212.411,69.5217 232.078,64.6883 252.5,63.5 Z"/></g>
<g><path style="opacity:0.978" fill="#000000" d="M 251.5,119.5 C 255.273,119.263 258.94,119.763 262.5,121C 296.748,137.193 331.082,153.193 365.5,169C 367.942,173.052 368.109,177.219 366,181.5C 331.517,197.663 297.017,213.83 262.5,230C 257.016,232.148 251.683,231.815 246.5,229C 212.833,213.333 179.167,197.667 145.5,182C 142.833,177.667 142.833,173.333 145.5,169C 181.044,152.725 216.378,136.225 251.5,119.5 Z"/></g>
<g><path style="opacity:0.962" fill="#000000" d="M 366.5,197.5 C 367.66,209.993 367.827,222.66 367,235.5C 366.5,237.333 365.333,238.5 363.5,239C 360.833,239.667 358.167,239.667 355.5,239C 353.667,238.5 352.5,237.333 352,235.5C 351.168,225.151 351.334,214.817 352.5,204.5C 357.446,202.531 362.113,200.198 366.5,197.5 Z"/></g>
<g><path style="opacity:0.976" fill="#000000" d="M 175.5,212.5 C 197.594,222.379 219.594,232.546 241.5,243C 250.833,247.667 260.167,247.667 269.5,243C 291.289,232.688 313.122,222.522 335,212.5C 335.667,228.167 335.667,243.833 335,259.5C 318.532,279.49 297.366,291.323 271.5,295C 234.081,300.085 202.581,288.919 177,261.5C 175.53,245.262 175.03,228.929 175.5,212.5 Z"/></g>
</svg>
