<?xml version="1.0" encoding="UTF-8"?>
<!DOCTYPE svg PUBLIC "-//W3C//DTD SVG 1.1//EN" "http://www.w3.org/Graphics/SVG/1.1/DTD/svg11.dtd">
<svg xmlns="http://www.w3.org/2000/svg" version="1.1" width="512px" height="512px" style="shape-rendering:geometricPrecision; text-rendering:geometricPrecision; image-rendering:optimizeQuality; fill-rule:evenodd; clip-rule:evenodd" xmlns:xlink="http://www.w3.org/1999/xlink">
<g><path style="opacity:0.99" fill="#383737" d="M 122.5,-0.5 C 142.833,-0.5 163.167,-0.5 183.5,-0.5C 229.503,9.00525 256.336,37.0052 264,83.5C 264.5,95.4954 264.667,107.495 264.5,119.5C 289.334,126.798 300.501,143.465 298,169.5C 293.749,188.251 282.249,199.918 263.5,204.5C 255.724,243.935 233.724,272.269 197.5,289.5C 196.505,295.128 196.171,300.794 196.5,306.5C 232.07,300.919 262.237,310.919 287,336.5C 294.138,345.105 299.472,354.771 303,365.5C 316.667,343.5 330.333,321.5 344,299.5C 357.352,279.871 374.518,275.704 395.5,287C 399.752,290.581 403.252,294.748 406,299.5C 439.416,353.335 473.083,407.002 507,460.5C 508.62,463.893 510.12,467.226 511.5,470.5C 511.5,475.833 511.5,481.167 511.5,486.5C 507.491,499.175 499.158,507.509 486.5,511.5C 332.833,511.5 179.167,511.5 25.5,511.5C 12.5,507.167 3.83333,498.5 -0.5,485.5C -0.5,449.833 -0.5,414.167 -0.5,378.5C 7.68155,341.15 30.3482,317.65 67.5,308C 81.455,306.612 95.455,306.112 109.5,306.5C 109.829,300.794 109.495,295.128 108.5,289.5C 72.2538,272.37 50.4205,244.037 43,204.5C 18.1591,197.649 6.49241,181.316 8,155.5C 11.6353,137.03 22.4686,125.03 40.5,119.5C 41.3325,107.848 41.8325,96.1809 42,84.5C 43.9042,66.2778 50.4042,49.9445 61.5,35.5C 65.2776,33.1965 69.2776,32.8632 73.5,34.5C 74.0722,36.2554 74.9055,37.9221 76,39.5C 76.6667,41.1667 76.6667,42.8333 76,44.5C 62.5494,61.9679 57.3828,81.6346 60.5,103.5C 108.418,83.211 157.752,79.0443 208.5,91C 221.169,94.2783 233.502,98.445 245.5,103.5C 245.56,104.043 245.893,104.376 246.5,104.5C 247.816,98.6796 247.816,93.0129 246.5,87.5C 241.01,47.5086 218.343,24.0086 178.5,17C 160.833,16.3333 143.167,16.3333 125.5,17C 116.289,18.7934 107.289,21.2934 98.5,24.5C 97.1667,24.3333 95.8333,24.1667 94.5,24C 93.2949,22.6244 91.9616,21.4577 90.5,20.5C 88.9349,16.0241 89.9349,12.1908 93.5,9C 102.855,4.49206 112.522,1.3254 122.5,-0.5 Z"/></g>
<g><path style="opacity:1" fill="#f76379" d="M 246.5,87.5 C 246.821,93.0262 246.488,98.3595 245.5,103.5C 233.502,98.445 221.169,94.2783 208.5,91C 157.752,79.0443 108.418,83.211 60.5,103.5C 57.3828,81.6346 62.5494,61.9679 76,44.5C 76.6667,42.8333 76.6667,41.1667 76,39.5C 74.9055,37.9221 74.0722,36.2554 73.5,34.5C 78.5597,29.1079 84.2264,24.4413 90.5,20.5C 91.9616,21.4577 93.2949,22.6244 94.5,24C 95.8333,24.1667 97.1667,24.3333 98.5,24.5C 107.289,21.2934 116.289,18.7934 125.5,17C 143.167,16.3333 160.833,16.3333 178.5,17C 218.343,24.0086 241.01,47.5086 246.5,87.5 Z"/></g>
<g><path style="opacity:1" fill="#894a53" d="M 246.5,87.5 C 247.816,93.0129 247.816,98.6796 246.5,104.5C 245.893,104.376 245.56,104.043 245.5,103.5C 246.488,98.3595 246.821,93.0262 246.5,87.5 Z"/></g>
<g><path style="opacity:1" fill="#e54f6d" d="M 134.5,101.5 C 162.395,100.122 189.728,103.289 216.5,111C 225.202,113.521 233.535,116.854 241.5,121C 236.622,127.224 230.622,131.89 223.5,135C 219.5,135.667 215.5,135.667 211.5,135C 184.281,127.826 156.614,125.493 128.5,128C 116.625,129.308 104.959,131.642 93.5,135C 86.4928,136.562 80.1595,135.229 74.5,131C 71.1667,127.667 67.8333,124.333 64.5,121C 86.7036,110.118 110.037,103.618 134.5,101.5 Z"/></g>
<g><path style="opacity:1" fill="#d7b197" d="M 40.5,137.5 C 42.4848,153.132 43.1514,169.132 42.5,185.5C 34.2805,183.116 28.7805,177.783 26,169.5C 23.012,155.151 27.8454,144.484 40.5,137.5 Z"/></g>
<g><path style="opacity:1" fill="#827064" d="M 265.5,138.5 C 264.504,153.991 264.17,169.658 264.5,185.5C 263.173,169.662 263.173,153.662 264.5,137.5C 265.107,137.624 265.44,137.957 265.5,138.5 Z"/></g>
<g><path style="opacity:1" fill="#d8b198" d="M 265.5,138.5 C 282.482,148.431 285.649,161.765 275,178.5C 271.89,181.448 268.39,183.781 264.5,185.5C 264.17,169.658 264.504,153.991 265.5,138.5 Z"/></g>
<g><path style="opacity:1" fill="#f2caab" d="M 59.5,140.5 C 69.971,151.266 82.6377,155.099 97.5,152C 115.041,146.355 133.041,143.855 151.5,144.5C 170.928,143.966 189.928,146.466 208.5,152C 223.132,154.925 235.632,151.092 246,140.5C 246.667,160.833 246.667,181.167 246,201.5C 238.35,239.482 216.184,264.648 179.5,277C 140.652,286.937 107.819,277.104 81,247.5C 69.1347,232.912 62.1347,216.245 60,197.5C 59.5001,178.503 59.3334,159.503 59.5,140.5 Z"/></g>
<g><path style="opacity:1" fill="#393838" d="M 116.5,221.5 C 118.989,221.298 121.323,221.798 123.5,223C 134.765,238.418 149.432,242.752 167.5,236C 174.069,232.766 179.402,228.099 183.5,222C 192.686,220.519 196.519,224.353 195,233.5C 187.621,245.78 176.787,252.947 162.5,255C 142.177,258.675 125.677,252.508 113,236.5C 109.018,230.235 110.185,225.235 116.5,221.5 Z"/></g>
<g><path style="opacity:1" fill="#d9b399" d="M 127.5,295.5 C 135.599,296.988 143.766,297.988 152,298.5C 160.888,297.921 169.721,296.921 178.5,295.5C 178.666,304.173 178.5,312.84 178,321.5C 172.377,336.567 161.543,342.734 145.5,340C 136.138,336.64 130.305,330.14 128,320.5C 127.5,312.173 127.334,303.84 127.5,295.5 Z"/></g>
<g><path style="opacity:1" fill="#facf65" d="M 369.5,298.5 C 376.81,297.215 382.976,299.215 388,304.5C 422.75,360.335 457.75,416.002 493,471.5C 495.87,480.556 493.37,487.723 485.5,493C 412.557,494.657 339.557,494.99 266.5,494C 256.778,489.284 253.611,481.784 257,471.5C 292,415.833 327,360.167 362,304.5C 364.114,301.879 366.614,299.879 369.5,298.5 Z"/></g>
<g><path style="opacity:1" fill="#f66379" d="M 75.5,324.5 C 78.5,324.5 81.5,324.5 84.5,324.5C 84.1699,342.341 84.5033,360.008 85.5,377.5C 86.4598,385.296 90.7931,390.129 98.5,392C 134.5,392.667 170.5,392.667 206.5,392C 214.676,390.491 219.509,385.658 221,377.5C 221.5,359.503 221.667,341.503 221.5,323.5C 229.813,323.663 237.813,325.33 245.5,328.5C 246.667,371.496 246.833,414.496 246,457.5C 237.387,468.913 236.22,481.079 242.5,494C 226.833,494.667 211.167,494.667 195.5,494C 204.585,484.663 210.085,473.496 212,460.5C 212.667,447.167 212.667,433.833 212,420.5C 209.744,415.243 205.91,411.743 200.5,410C 168.5,409.333 136.5,409.333 104.5,410C 100.388,411.779 97.2215,414.612 95,418.5C 93.8686,425.399 93.3686,432.399 93.5,439.5C 91.1616,460.146 96.8283,478.146 110.5,493.5C 93.5131,494.499 76.5131,494.833 59.5,494.5C 59.3333,439.166 59.5,383.832 60,328.5C 64.8943,326.151 70.0609,324.818 75.5,324.5 Z"/></g>
<g><path style="opacity:1" fill="#7d474f" d="M 75.5,324.5 C 78.6248,323.521 81.9581,323.187 85.5,323.5C 85.5,341.5 85.5,359.5 85.5,377.5C 84.5033,360.008 84.1699,342.341 84.5,324.5C 81.5,324.5 78.5,324.5 75.5,324.5 Z"/></g>
<g><path style="opacity:1" fill="#e2effd" d="M 204.5,374.5 C 170.5,374.5 136.5,374.5 102.5,374.5C 102.5,357.833 102.5,341.167 102.5,324.5C 105.5,324.5 108.5,324.5 111.5,324.5C 120.163,350.674 138.163,361.174 165.5,356C 181.364,350.639 191.031,339.805 194.5,323.5C 197.833,323.5 201.167,323.5 204.5,323.5C 204.5,340.5 204.5,357.5 204.5,374.5 Z"/></g>
<g><path style="opacity:1" fill="#a9b2bb" d="M 40.5,340.5 C 40.56,339.957 40.8933,339.624 41.5,339.5C 42.8312,391.332 42.8312,442.998 41.5,494.5C 41.8322,442.997 41.4989,391.664 40.5,340.5 Z"/></g>
<g><path style="opacity:1" fill="#868c93" d="M 264.5,339.5 C 264.169,368.671 264.502,397.671 265.5,426.5C 265.217,427.289 264.717,427.956 264,428.5C 263.169,398.664 263.336,368.997 264.5,339.5 Z"/></g>
<g><path style="opacity:1" fill="#e2effd" d="M 40.5,340.5 C 41.4989,391.664 41.8322,442.997 41.5,494.5C 31.1905,496.757 23.3572,493.424 18,484.5C 16.8531,466.897 16.3531,449.23 16.5,431.5C 16.3667,413.125 16.8667,394.792 18,376.5C 21.7203,362.043 29.2203,350.043 40.5,340.5 Z"/></g>
<g><path style="opacity:1" fill="#e2eefc" d="M 264.5,339.5 C 281.064,352.619 288.897,369.619 288,390.5C 280.239,402.36 272.739,414.36 265.5,426.5C 264.502,397.671 264.169,368.671 264.5,339.5 Z"/></g>
<g><path style="opacity:1" fill="#393837" d="M 362.5,390.5 C 361.957,390.56 361.624,390.893 361.5,391.5C 370.81,392.498 380.143,392.832 389.5,392.5C 398.077,394.98 401.577,400.647 400,409.5C 389.555,424.945 378.721,440.112 367.5,455C 371.121,454.595 374.787,454.595 378.5,455C 384.315,461.145 383.649,466.478 376.5,471C 366.495,473.338 356.495,475.338 346.5,477C 344.333,476.167 342.833,474.667 342,472.5C 339.417,463 336.917,453.5 334.5,444C 334.782,438.595 337.615,435.762 343,435.5C 345.814,435.408 348.147,436.408 350,438.5C 351.197,441.089 352.197,443.756 353,446.5C 361.719,434.621 370.219,422.621 378.5,410.5C 379.043,410.44 379.376,410.107 379.5,409.5C 369.856,408.502 360.19,408.168 350.5,408.5C 342.991,405.824 339.825,400.491 341,392.5C 349.667,378.5 358.333,364.5 367,350.5C 374.354,343.104 379.854,344.271 383.5,354C 383.204,355.888 382.704,357.722 382,359.5C 374.978,369.552 368.478,379.886 362.5,390.5 Z"/></g>
<g><path style="opacity:1" fill="#8d949b" d="M 111.5,324.5 C 108.5,324.5 105.5,324.5 102.5,324.5C 102.5,341.167 102.5,357.833 102.5,374.5C 136.5,374.5 170.5,374.5 204.5,374.5C 170.337,375.498 136.004,375.832 101.5,375.5C 101.5,358.167 101.5,340.833 101.5,323.5C 105.042,323.187 108.375,323.521 111.5,324.5 Z"/></g>
<g><path style="opacity:1" fill="#a28a50" d="M 362.5,390.5 C 371.5,391.167 380.5,391.833 389.5,392.5C 380.143,392.832 370.81,392.498 361.5,391.5C 361.624,390.893 361.957,390.56 362.5,390.5 Z"/></g>
<g><path style="opacity:1" fill="#8a774b" d="M 350.5,408.5 C 360.19,408.168 369.856,408.502 379.5,409.5C 379.376,410.107 379.043,410.44 378.5,410.5C 369.167,409.833 359.833,409.167 350.5,408.5 Z"/></g>
<g><path style="opacity:1" fill="#e64f6d" d="M 110.5,426.5 C 138.833,426.5 167.167,426.5 195.5,426.5C 195.667,437.838 195.5,449.172 195,460.5C 186.543,486.488 168.71,497.322 141.5,493C 124.536,487.034 114.369,475.2 111,457.5C 110.5,447.172 110.334,436.839 110.5,426.5 Z"/></g>
<g><path style="opacity:1" fill="#3b3738" d="M 141.5,451.5 C 148.841,451.334 156.174,451.5 163.5,452C 171.956,456.291 172.623,461.625 165.5,468C 157.167,468.667 148.833,468.667 140.5,468C 136.212,464.229 135.379,459.729 138,454.5C 139.518,453.837 140.685,452.837 141.5,451.5 Z"/></g>
</svg>
