<?xml version="1.0" encoding="UTF-8"?>
<!DOCTYPE svg PUBLIC "-//W3C//DTD SVG 1.1//EN" "http://www.w3.org/Graphics/SVG/1.1/DTD/svg11.dtd">
<svg xmlns="http://www.w3.org/2000/svg" version="1.1" width="512px" height="512px" style="shape-rendering:geometricPrecision; text-rendering:geometricPrecision; image-rendering:optimizeQuality; fill-rule:evenodd; clip-rule:evenodd" xmlns:xlink="http://www.w3.org/1999/xlink">
<g><path style="opacity:0.998" fill="#000000" d="M 511.5,56.5 C 511.5,173.167 511.5,289.833 511.5,406.5C 508.351,414.481 502.684,419.981 494.5,423C 436.168,423.5 377.834,423.667 319.5,423.5C 319.5,420.833 319.5,418.167 319.5,415.5C 319.5,412.833 319.5,410.167 319.5,407.5C 376.501,407.667 433.501,407.5 490.5,407C 492.667,406.167 494.167,404.667 495,402.5C 495.5,393.506 495.666,384.506 495.5,375.5C 436.833,375.5 378.167,375.5 319.5,375.5C 319.5,372.833 319.5,370.167 319.5,367.5C 319.5,364.833 319.5,362.167 319.5,359.5C 378.167,359.5 436.833,359.5 495.5,359.5C 495.5,348.833 495.5,338.167 495.5,327.5C 428.833,327.5 362.167,327.5 295.5,327.5C 295.5,324.833 295.5,322.167 295.5,319.5C 295.5,316.833 295.5,314.167 295.5,311.5C 314.167,311.5 332.833,311.5 351.5,311.5C 351.5,226.167 351.5,140.833 351.5,55.5C 310.499,55.3333 269.499,55.5 228.5,56C 227.069,56.4652 225.903,57.2986 225,58.5C 223.507,126.751 223.007,195.084 223.5,263.5C 220.833,263.5 218.167,263.5 215.5,263.5C 212.833,263.5 210.167,263.5 207.5,263.5C 207.333,194.499 207.5,125.499 208,56.5C 210.833,48.3333 216.333,42.8333 224.5,40C 314.5,39.3333 404.5,39.3333 494.5,40C 502.684,43.0191 508.351,48.5191 511.5,56.5 Z"/></g>
<g><path style="opacity:1" fill="#fef1dd" d="M 295.5,319.5 C 290.167,319.5 284.833,319.5 279.5,319.5C 279.666,309.494 279.5,299.494 279,289.5C 275.765,280.599 269.598,274.766 260.5,272C 245.504,271.5 230.504,271.333 215.5,271.5C 215.5,268.833 215.5,266.167 215.5,263.5C 218.167,263.5 220.833,263.5 223.5,263.5C 223.007,195.084 223.507,126.751 225,58.5C 225.903,57.2986 227.069,56.4652 228.5,56C 269.499,55.5 310.499,55.3333 351.5,55.5C 351.5,140.833 351.5,226.167 351.5,311.5C 332.833,311.5 314.167,311.5 295.5,311.5C 295.5,314.167 295.5,316.833 295.5,319.5 Z"/></g>
<g><path style="opacity:1" fill="#f1d0a4" d="M 367.5,55.5 C 408.501,55.3333 449.501,55.5 490.5,56C 491.931,56.4652 493.097,57.2986 494,58.5C 495.495,142.751 495.995,227.085 495.5,311.5C 452.833,311.5 410.167,311.5 367.5,311.5C 367.5,226.167 367.5,140.833 367.5,55.5 Z"/></g>
<g><path style="opacity:0.998" fill="#000000" d="M 27.5,71.5 C 78.1678,71.3333 128.834,71.5 179.5,72C 180.416,72.3742 181.25,72.8742 182,73.5C 183.159,102.082 183.659,130.749 183.5,159.5C 183.333,187.5 183.167,215.5 183,243.5C 182.626,244.416 182.126,245.25 181.5,246C 155.585,247.158 129.585,247.658 103.5,247.5C 78.1667,247.333 52.8333,247.167 27.5,247C 26.5838,246.626 25.7504,246.126 25,245.5C 23.3418,188.916 23.0084,132.249 24,75.5C 24.6897,73.6498 25.8564,72.3164 27.5,71.5 Z"/></g>
<g><path style="opacity:1" fill="#b1866c" d="M 39.5,87.5 C 82.1667,87.5 124.833,87.5 167.5,87.5C 167.5,135.5 167.5,183.5 167.5,231.5C 124.833,231.5 82.1667,231.5 39.5,231.5C 39.5,183.5 39.5,135.5 39.5,87.5 Z"/></g>
<g><path style="opacity:1" fill="#000000" d="M 52.5,95.5 C 86.1683,95.3333 119.835,95.5 153.5,96C 155.329,96.2735 156.829,97.1068 158,98.5C 159.655,138.082 159.988,177.749 159,217.5C 158.727,219.329 157.893,220.829 156.5,222C 121.894,223.646 87.227,223.98 52.5,223C 51.0692,222.535 49.9025,221.701 49,220.5C 47.3509,180.56 47.0176,140.56 48,100.5C 49.025,98.313 50.525,96.6464 52.5,95.5 Z"/></g>
<g><path style="opacity:1" fill="#65b1fc" d="M 63.5,111.5 C 74.1667,111.5 84.8333,111.5 95.5,111.5C 95.5,124.833 95.5,138.167 95.5,151.5C 84.8333,151.5 74.1667,151.5 63.5,151.5C 63.5,138.167 63.5,124.833 63.5,111.5 Z"/></g>
<g><path style="opacity:1" fill="#a3d4fe" d="M 111.5,111.5 C 122.167,111.5 132.833,111.5 143.5,111.5C 143.5,124.833 143.5,138.167 143.5,151.5C 132.833,151.5 122.167,151.5 111.5,151.5C 111.5,138.167 111.5,124.833 111.5,111.5 Z"/></g>
<g><path style="opacity:1" fill="#010101" d="M 305.5,143.5 C 314.582,143.086 323.582,143.586 332.5,145C 333.701,145.903 334.535,147.069 335,148.5C 335.667,171.5 335.667,194.5 335,217.5C 334.5,220.667 332.667,222.5 329.5,223C 320.424,223.913 311.424,223.58 302.5,222C 295.119,218.285 290.285,212.451 288,204.5C 287.333,190.167 287.333,175.833 288,161.5C 291.353,152.982 297.186,146.982 305.5,143.5 Z"/></g>
<g><path style="opacity:1" fill="#010100" d="M 388.5,143.5 C 397.582,143.086 406.582,143.586 415.5,145C 421.943,147.777 426.777,152.277 430,158.5C 431.619,173.765 431.952,189.099 431,204.5C 428.659,212.841 423.493,218.674 415.5,222C 406.562,223.548 397.562,223.881 388.5,223C 387.069,222.535 385.903,221.701 385,220.5C 383.363,196.563 383.03,172.563 384,148.5C 385.025,146.313 386.525,144.646 388.5,143.5 Z"/></g>
<g><path style="opacity:1" fill="#b0866c" d="M 308.5,159.5 C 312.167,159.5 315.833,159.5 319.5,159.5C 319.5,175.5 319.5,191.5 319.5,207.5C 315.818,207.665 312.152,207.499 308.5,207C 306.333,206.167 304.833,204.667 304,202.5C 303.333,189.833 303.333,177.167 304,164.5C 305.025,162.313 306.525,160.646 308.5,159.5 Z"/></g>
<g><path style="opacity:1" fill="#b0866c" d="M 399.5,159.5 C 403.182,159.335 406.848,159.501 410.5,160C 411.931,160.465 413.097,161.299 414,162.5C 415.131,169.399 415.631,176.399 415.5,183.5C 415.631,190.601 415.131,197.601 414,204.5C 413.097,205.701 411.931,206.535 410.5,207C 406.848,207.499 403.182,207.665 399.5,207.5C 399.5,191.5 399.5,175.5 399.5,159.5 Z"/></g>
<g><path style="opacity:1" fill="#a3d4fe" d="M 63.5,167.5 C 74.1667,167.5 84.8333,167.5 95.5,167.5C 95.5,180.833 95.5,194.167 95.5,207.5C 84.8333,207.5 74.1667,207.5 63.5,207.5C 63.5,194.167 63.5,180.833 63.5,167.5 Z"/></g>
<g><path style="opacity:1" fill="#65b1fc" d="M 111.5,167.5 C 122.167,167.5 132.833,167.5 143.5,167.5C 143.5,180.833 143.5,194.167 143.5,207.5C 132.833,207.5 122.167,207.5 111.5,207.5C 111.5,194.167 111.5,180.833 111.5,167.5 Z"/></g>
<g><path style="opacity:0.998" fill="#000000" d="M 215.5,271.5 C 230.504,271.333 245.504,271.5 260.5,272C 269.598,274.766 275.765,280.599 279,289.5C 279.5,299.494 279.666,309.494 279.5,319.5C 279.5,327.5 279.5,335.5 279.5,343.5C 286.589,343.116 293.589,343.616 300.5,345C 301.701,345.903 302.535,347.069 303,348.5C 303.5,354.825 303.666,361.158 303.5,367.5C 303.5,383.5 303.5,399.5 303.5,415.5C 303.961,428.266 303.461,440.933 302,453.5C 301.25,454.126 300.416,454.626 299.5,455C 292.842,455.5 286.175,455.666 279.5,455.5C 279.5,460.833 279.5,466.167 279.5,471.5C 327.5,471.5 375.5,471.5 423.5,471.5C 423.5,476.833 423.5,482.167 423.5,487.5C 284.833,487.5 146.167,487.5 7.5,487.5C 7.5,482.167 7.5,476.833 7.5,471.5C 12.8333,471.5 18.1667,471.5 23.5,471.5C 23.5,466.167 23.5,460.833 23.5,455.5C 16.825,455.666 10.1583,455.5 3.5,455C 1.64977,454.31 0.316435,453.144 -0.5,451.5C -0.5,416.833 -0.5,382.167 -0.5,347.5C 0.316435,345.856 1.64977,344.69 3.5,344C 10.1583,343.5 16.825,343.334 23.5,343.5C 23.3334,325.164 23.5001,306.83 24,288.5C 26.3513,281.481 30.8513,276.314 37.5,273C 96.7746,271.512 156.108,271.012 215.5,271.5 Z M 83.5,455.5 C 128.838,455.167 174.172,455.5 219.5,456.5C 223.288,461.244 226.955,466.077 230.5,471C 177.833,471.667 125.167,471.667 72.5,471C 76.411,465.936 80.0777,460.769 83.5,455.5 Z"/></g>
<g><path style="opacity:1" fill="#fe926a" d="M 44.5,287.5 C 115.834,287.333 187.167,287.5 258.5,288C 260.667,288.833 262.167,290.333 263,292.5C 263.5,309.497 263.667,326.497 263.5,343.5C 257.158,343.334 250.825,343.5 244.5,344C 243.069,344.465 241.903,345.299 241,346.5C 239.552,356.061 239.052,365.727 239.5,375.5C 180.833,375.5 122.167,375.5 63.5,375.5C 63.9475,365.727 63.4475,356.061 62,346.5C 60.8289,345.107 59.3289,344.273 57.5,344C 51.5092,343.501 45.5092,343.334 39.5,343.5C 39.3334,326.497 39.5001,309.497 40,292.5C 41.025,290.313 42.525,288.646 44.5,287.5 Z"/></g>
<g><path style="opacity:1" fill="#000000" d="M 103.5,295.5 C 108.833,295.5 114.167,295.5 119.5,295.5C 119.5,319.5 119.5,343.5 119.5,367.5C 114.167,367.5 108.833,367.5 103.5,367.5C 103.5,343.5 103.5,319.5 103.5,295.5 Z"/></g>
<g><path style="opacity:1" fill="#000000" d="M 183.5,295.5 C 188.833,295.5 194.167,295.5 199.5,295.5C 199.5,319.5 199.5,343.5 199.5,367.5C 194.167,367.5 188.833,367.5 183.5,367.5C 183.5,343.5 183.5,319.5 183.5,295.5 Z"/></g>
<g><path style="opacity:1" fill="#f1ba87" d="M 279.5,319.5 C 284.833,319.5 290.167,319.5 295.5,319.5C 295.5,322.167 295.5,324.833 295.5,327.5C 362.167,327.5 428.833,327.5 495.5,327.5C 495.5,338.167 495.5,348.833 495.5,359.5C 436.833,359.5 378.167,359.5 319.5,359.5C 319.5,362.167 319.5,364.833 319.5,367.5C 314.167,367.5 308.833,367.5 303.5,367.5C 303.666,361.158 303.5,354.825 303,348.5C 302.535,347.069 301.701,345.903 300.5,345C 293.589,343.616 286.589,343.116 279.5,343.5C 279.5,335.5 279.5,327.5 279.5,319.5 Z"/></g>
<g><path style="opacity:1" fill="#fe7044" d="M 31.5,359.5 C 31.5,386.167 31.5,412.833 31.5,439.5C 26.1667,439.5 20.8333,439.5 15.5,439.5C 15.5,412.833 15.5,386.167 15.5,359.5C 20.8333,359.5 26.1667,359.5 31.5,359.5 Z"/></g>
<g><path style="opacity:1" fill="#fe8256" d="M 31.5,359.5 C 36.8333,359.5 42.1667,359.5 47.5,359.5C 47.5,386.167 47.5,412.833 47.5,439.5C 42.1667,439.5 36.8333,439.5 31.5,439.5C 31.5,412.833 31.5,386.167 31.5,359.5 Z"/></g>
<g><path style="opacity:1" fill="#fe8256" d="M 271.5,359.5 C 271.5,386.167 271.5,412.833 271.5,439.5C 266.167,439.5 260.833,439.5 255.5,439.5C 255.5,412.833 255.5,386.167 255.5,359.5C 260.833,359.5 266.167,359.5 271.5,359.5 Z"/></g>
<g><path style="opacity:1" fill="#fe7044" d="M 271.5,359.5 C 276.833,359.5 282.167,359.5 287.5,359.5C 287.5,386.167 287.5,412.833 287.5,439.5C 282.167,439.5 276.833,439.5 271.5,439.5C 271.5,412.833 271.5,386.167 271.5,359.5 Z"/></g>
<g><path style="opacity:1" fill="#f1d0a4" d="M 303.5,367.5 C 308.833,367.5 314.167,367.5 319.5,367.5C 319.5,370.167 319.5,372.833 319.5,375.5C 378.167,375.5 436.833,375.5 495.5,375.5C 495.666,384.506 495.5,393.506 495,402.5C 494.167,404.667 492.667,406.167 490.5,407C 433.501,407.5 376.501,407.667 319.5,407.5C 319.5,410.167 319.5,412.833 319.5,415.5C 314.167,415.5 308.833,415.5 303.5,415.5C 303.5,399.5 303.5,383.5 303.5,367.5 Z"/></g>
<g><path style="opacity:1" fill="#fe7044" d="M 63.5,391.5 C 122.167,391.5 180.833,391.5 239.5,391.5C 239.5,396.833 239.5,402.167 239.5,407.5C 180.833,407.5 122.167,407.5 63.5,407.5C 63.5,402.167 63.5,396.833 63.5,391.5 Z"/></g>
<g><path style="opacity:1" fill="#feb89b" d="M 63.5,423.5 C 122.167,423.5 180.833,423.5 239.5,423.5C 239.5,428.833 239.5,434.167 239.5,439.5C 180.833,439.5 122.167,439.5 63.5,439.5C 63.5,434.167 63.5,428.833 63.5,423.5 Z"/></g>
<g><path style="opacity:1" fill="#b0856c" d="M 39.5,455.5 C 47.5069,455.334 55.5069,455.5 63.5,456C 59.5,461 55.5,466 51.5,471C 47.5138,471.499 43.5138,471.666 39.5,471.5C 39.5,466.167 39.5,460.833 39.5,455.5 Z"/></g>
<g><path style="opacity:1" fill="#b0856c" d="M 239.5,456.5 C 247.316,455.508 255.316,455.174 263.5,455.5C 263.5,460.833 263.5,466.167 263.5,471.5C 259.486,471.666 255.486,471.499 251.5,471C 247.601,466.004 243.601,461.171 239.5,456.5 Z"/></g>
<g><path style="opacity:1" fill="#000000" d="M 439.5,471.5 C 444.833,471.5 450.167,471.5 455.5,471.5C 455.5,476.833 455.5,482.167 455.5,487.5C 450.167,487.5 444.833,487.5 439.5,487.5C 439.5,482.167 439.5,476.833 439.5,471.5 Z"/></g>
</svg>
