<?xml version="1.0" encoding="UTF-8"?>
<!DOCTYPE svg PUBLIC "-//W3C//DTD SVG 1.1//EN" "http://www.w3.org/Graphics/SVG/1.1/DTD/svg11.dtd">
<svg xmlns="http://www.w3.org/2000/svg" version="1.1" width="512px" height="512px" style="shape-rendering:geometricPrecision; text-rendering:geometricPrecision; image-rendering:optimizeQuality; fill-rule:evenodd; clip-rule:evenodd" xmlns:xlink="http://www.w3.org/1999/xlink">
<g><path style="opacity:0.992" fill="#010101" d="M 241.5,-0.5 C 250.833,-0.5 260.167,-0.5 269.5,-0.5C 311.962,8.12472 338.795,33.458 350,75.5C 350.828,79.466 351.328,83.466 351.5,87.5C 362.896,87.0907 374.23,87.5907 385.5,89C 399.405,93.239 408.238,102.406 412,116.5C 413.369,132.798 413.869,149.131 413.5,165.5C 412.505,177.989 412.171,190.656 412.5,203.5C 427.905,203.048 443.238,203.548 458.5,205C 461.821,207.452 464.321,210.618 466,214.5C 466.667,229.5 466.667,244.5 466,259.5C 463.794,266.021 459.294,269.854 452.5,271C 439.171,271.5 425.837,271.667 412.5,271.5C 412.5,281.5 412.5,291.5 412.5,301.5C 427.905,301.048 443.238,301.548 458.5,303C 462.302,305.087 464.802,308.254 466,312.5C 466.667,327.5 466.667,342.5 466,357.5C 464.321,361.382 461.821,364.548 458.5,367C 443.238,368.452 427.905,368.952 412.5,368.5C 412.5,378.5 412.5,388.5 412.5,398.5C 426.171,398.333 439.837,398.5 453.5,399C 459.469,400.298 463.635,403.798 466,409.5C 466.667,424.167 466.667,438.833 466,453.5C 464.5,460.333 460.333,464.5 453.5,466C 439.837,466.5 426.171,466.667 412.5,466.5C 412.5,476.5 412.5,486.5 412.5,496.5C 433.167,496.5 453.833,496.5 474.5,496.5C 481.833,496.5 489.167,496.5 496.5,496.5C 496.667,394.499 496.5,292.499 496,190.5C 493.833,181.667 488.333,176.167 479.5,174C 474.511,173.501 469.511,173.334 464.5,173.5C 455.494,173.666 446.494,173.5 437.5,173C 434.292,171.563 432.625,169.063 432.5,165.5C 432.327,161.83 433.993,159.33 437.5,158C 453.213,157.081 468.879,157.414 484.5,159C 498.447,163.445 507.447,172.612 511.5,186.5C 511.5,291.5 511.5,396.5 511.5,501.5C 509.167,505.833 505.833,509.167 501.5,511.5C 337.5,511.5 173.5,511.5 9.5,511.5C 5.16667,509.167 1.83333,505.833 -0.5,501.5C -0.5,396.5 -0.5,291.5 -0.5,186.5C 3.5535,172.612 12.5535,163.445 26.5,159C 50.1226,157.551 73.7892,157.051 97.5,157.5C 97.3334,144.829 97.5001,132.162 98,119.5C 101.109,104.389 109.942,94.2225 124.5,89C 136.113,87.6128 147.779,87.1128 159.5,87.5C 164.011,47.8267 184.678,20.3267 221.5,5C 228.208,2.82607 234.875,0.992739 241.5,-0.5 Z"/></g>
<g><path style="opacity:1" fill="#d9616c" d="M 266.5,15.5 C 265.761,15.369 265.094,15.5357 264.5,16C 288.11,28.1089 303.444,46.9422 310.5,72.5C 299.833,72.5 289.167,72.5 278.5,72.5C 278.828,61.6536 278.494,50.9869 277.5,40.5C 276.764,36.2088 274.431,33.0421 270.5,31C 261.242,29.4165 251.909,29.0832 242.5,30C 237.473,31.8534 234.473,35.3534 233.5,40.5C 232.506,50.9869 232.172,61.6536 232.5,72.5C 221.654,72.1722 210.987,72.5056 200.5,73.5C 195.353,74.4734 191.853,77.4734 190,82.5C 189.083,91.9091 189.416,101.242 191,110.5C 192.5,113.333 194.667,115.5 197.5,117C 209.167,117.333 220.833,117.667 232.5,118C 233.322,129.424 233.822,140.924 234,152.5C 235.5,156.667 238.333,159.5 242.5,161C 250.833,161.667 259.167,161.667 267.5,161C 272.235,159.932 275.402,157.099 277,152.5C 277.178,140.924 277.678,129.424 278.5,118C 289.161,117.5 299.828,117.333 310.5,117.5C 303.875,143.626 288.541,162.793 264.5,175C 265.094,175.464 265.761,175.631 266.5,175.5C 227.181,178.921 198.681,162.921 181,127.5C 166.566,85.4726 177.399,51.6393 213.5,26C 230.051,15.9893 247.718,12.4893 266.5,15.5 Z"/></g>
<g><path style="opacity:1" fill="#d74953" d="M 266.5,15.5 C 302.534,22.03 325.367,43.03 335,78.5C 340.666,120.338 324.833,150.838 287.5,170C 280.66,172.626 273.66,174.46 266.5,175.5C 265.761,175.631 265.094,175.464 264.5,175C 288.541,162.793 303.875,143.626 310.5,117.5C 314.84,116.748 318.007,114.414 320,110.5C 321.584,101.242 321.917,91.9091 321,82.5C 319.18,77.5118 315.68,74.5118 310.5,73.5C 310.5,73.1667 310.5,72.8333 310.5,72.5C 303.444,46.9422 288.11,28.1089 264.5,16C 265.094,15.5357 265.761,15.369 266.5,15.5 Z"/></g>
<g><path style="opacity:1" fill="#010000" d="M 277.5,40.5 C 277.5,51.5 277.5,62.5 277.5,73.5C 288.5,73.5 299.5,73.5 310.5,73.5C 315.68,74.5118 319.18,77.5118 321,82.5C 321.917,91.9091 321.584,101.242 320,110.5C 318.007,114.414 314.84,116.748 310.5,117.5C 299.828,117.333 289.161,117.5 278.5,118C 277.678,129.424 277.178,140.924 277,152.5C 275.402,157.099 272.235,159.932 267.5,161C 259.167,161.667 250.833,161.667 242.5,161C 238.333,159.5 235.5,156.667 234,152.5C 233.822,140.924 233.322,129.424 232.5,118C 220.833,117.667 209.167,117.333 197.5,117C 194.667,115.5 192.5,113.333 191,110.5C 189.416,101.242 189.083,91.9091 190,82.5C 191.853,77.4734 195.353,74.4734 200.5,73.5C 211.5,73.5 222.5,73.5 233.5,73.5C 233.5,62.5 233.5,51.5 233.5,40.5C 234.473,35.3534 237.473,31.8534 242.5,30C 251.909,29.0832 261.242,29.4165 270.5,31C 274.431,33.0421 276.764,36.2088 277.5,40.5 Z"/></g>
<g><path style="opacity:1" fill="#f2f2f2" d="M 247.5,44.5 C 252.833,44.5 258.167,44.5 263.5,44.5C 263.038,57.5993 263.538,70.5993 265,83.5C 266.214,85.0488 267.714,86.2155 269.5,87C 281.829,87.4999 294.162,87.6665 306.5,87.5C 306.5,92.8333 306.5,98.1667 306.5,103.5C 293.401,103.038 280.401,103.538 267.5,105C 265.951,106.214 264.785,107.714 264,109.5C 263.5,121.829 263.333,134.162 263.5,146.5C 258.167,146.5 252.833,146.5 247.5,146.5C 247.962,133.401 247.462,120.401 246,107.5C 244.786,105.951 243.286,104.785 241.5,104C 229.171,103.5 216.838,103.333 204.5,103.5C 204.5,98.1667 204.5,92.8333 204.5,87.5C 217.599,87.962 230.599,87.462 243.5,86C 245.049,84.786 246.215,83.286 247,81.5C 247.5,69.1712 247.667,56.8378 247.5,44.5 Z"/></g>
<g><path style="opacity:1" fill="#74343a" d="M 233.5,40.5 C 233.5,51.5 233.5,62.5 233.5,73.5C 222.5,73.5 211.5,73.5 200.5,73.5C 210.987,72.5056 221.654,72.1722 232.5,72.5C 232.172,61.6536 232.506,50.9869 233.5,40.5 Z"/></g>
<g><path style="opacity:1" fill="#74343a" d="M 277.5,40.5 C 278.494,50.9869 278.828,61.6536 278.5,72.5C 289.167,72.5 299.833,72.5 310.5,72.5C 310.5,72.8333 310.5,73.1667 310.5,73.5C 299.5,73.5 288.5,73.5 277.5,73.5C 277.5,62.5 277.5,51.5 277.5,40.5 Z"/></g>
<g><path style="opacity:1" fill="#f5f4f5" d="M 351.5,103.5 C 364.181,100.675 371.681,105.675 374,118.5C 374.5,244.5 374.667,370.5 374.5,496.5C 362.167,496.5 349.833,496.5 337.5,496.5C 337.5,452.5 337.5,408.5 337.5,364.5C 345.076,364.422 349.909,360.755 352,353.5C 352.667,345.167 352.667,336.833 352,328.5C 350.64,325.265 348.473,322.765 345.5,321C 315.393,319.845 285.226,319.345 255,319.5C 225.082,319.341 195.249,319.841 165.5,321C 162.527,322.765 160.36,325.265 159,328.5C 158.333,336.833 158.333,345.167 159,353.5C 161.147,360.824 165.98,364.491 173.5,364.5C 173.333,382.836 173.5,401.17 174,419.5C 174.881,422.885 177.048,424.552 180.5,424.5C 182.14,431.698 181.807,438.698 179.5,445.5C 176.981,445.848 175.147,447.181 174,449.5C 173.5,465.163 173.333,480.83 173.5,496.5C 153.167,496.5 132.833,496.5 112.5,496.5C 112.333,371.5 112.5,246.5 113,121.5C 115.341,113.159 120.507,107.326 128.5,104C 139.161,103.5 149.828,103.333 160.5,103.5C 164.589,142.417 184.589,169.584 220.5,185C 262.536,198.762 298.703,189.595 329,157.5C 341.689,141.584 349.189,123.584 351.5,103.5 Z"/></g>
<g><path style="opacity:1" fill="#eceaec" d="M 351.5,103.5 C 361.71,102.12 372.044,102.287 382.5,104C 389.732,106.899 394.565,112.066 397,119.5C 397.5,245.166 397.667,370.833 397.5,496.5C 389.833,496.5 382.167,496.5 374.5,496.5C 374.667,370.5 374.5,244.5 374,118.5C 371.681,105.675 364.181,100.675 351.5,103.5 Z"/></g>
<g><path style="opacity:1" fill="#f4f3f4" d="M 413.5,165.5 C 419.833,165.5 426.167,165.5 432.5,165.5C 432.625,169.063 434.292,171.563 437.5,173C 446.494,173.5 455.494,173.666 464.5,173.5C 469.486,178.47 472.653,184.47 474,191.5C 474.5,293.166 474.667,394.833 474.5,496.5C 453.833,496.5 433.167,496.5 412.5,496.5C 412.5,486.5 412.5,476.5 412.5,466.5C 426.171,466.667 439.837,466.5 453.5,466C 460.333,464.5 464.5,460.333 466,453.5C 466.667,438.833 466.667,424.167 466,409.5C 463.635,403.798 459.469,400.298 453.5,399C 439.837,398.5 426.171,398.333 412.5,398.5C 412.5,388.5 412.5,378.5 412.5,368.5C 427.905,368.952 443.238,368.452 458.5,367C 461.821,364.548 464.321,361.382 466,357.5C 466.667,342.5 466.667,327.5 466,312.5C 464.802,308.254 462.302,305.087 458.5,303C 443.238,301.548 427.905,301.048 412.5,301.5C 412.5,291.5 412.5,281.5 412.5,271.5C 425.837,271.667 439.171,271.5 452.5,271C 459.294,269.854 463.794,266.021 466,259.5C 466.667,244.5 466.667,229.5 466,214.5C 464.321,210.618 461.821,207.452 458.5,205C 443.238,203.548 427.905,203.048 412.5,203.5C 412.171,190.656 412.505,177.989 413.5,165.5 Z"/></g>
<g><path style="opacity:1" fill="#f4f3f4" d="M 97.5,173.5 C 97.5,183.167 97.5,192.833 97.5,202.5C 83.9895,202.171 70.6562,202.504 57.5,203.5C 51.0485,204.489 46.8818,208.155 45,214.5C 44.3333,229.5 44.3333,244.5 45,259.5C 46.8333,265.333 50.6667,269.167 56.5,271C 70.1626,271.5 83.8293,271.667 97.5,271.5C 97.5,281.167 97.5,290.833 97.5,300.5C 83.9895,300.171 70.6562,300.504 57.5,301.5C 51.553,302.563 47.3864,305.896 45,311.5C 44.3333,326.833 44.3333,342.167 45,357.5C 46.963,363.731 51.1296,367.564 57.5,369C 71.1626,369.5 84.8293,369.667 98.5,369.5C 98.5,379.167 98.5,388.833 98.5,398.5C 84.1628,398.333 69.8295,398.5 55.5,399C 50.6667,401.167 47.1667,404.667 45,409.5C 44.3333,424.167 44.3333,438.833 45,453.5C 46.2979,459.469 49.7979,463.635 55.5,466C 69.8295,466.5 84.1628,466.667 98.5,466.5C 98.5,476.5 98.5,486.5 98.5,496.5C 70.5,496.5 42.5,496.5 14.5,496.5C 14.3333,394.166 14.5,291.833 15,189.5C 17.5261,181.641 22.6928,176.474 30.5,174C 52.8308,173.5 75.1642,173.333 97.5,173.5 Z"/></g>
<g><path style="opacity:1" fill="#eceaec" d="M 464.5,173.5 C 469.511,173.334 474.511,173.501 479.5,174C 488.333,176.167 493.833,181.667 496,190.5C 496.5,292.499 496.667,394.499 496.5,496.5C 489.167,496.5 481.833,496.5 474.5,496.5C 474.667,394.833 474.5,293.166 474,191.5C 472.653,184.47 469.486,178.47 464.5,173.5 Z"/></g>
<g><path style="opacity:1" fill="#939293" d="M 97.5,173.5 C 98.494,183.319 98.8274,193.319 98.5,203.5C 84.8333,203.5 71.1667,203.5 57.5,203.5C 70.6562,202.504 83.9895,202.171 97.5,202.5C 97.5,192.833 97.5,183.167 97.5,173.5 Z"/></g>
<g><path style="opacity:1" fill="#bcd6f9" d="M 75.5,218.5 C 75.5,230.833 75.5,243.167 75.5,255.5C 70.1667,255.5 64.8333,255.5 59.5,255.5C 59.5,243.167 59.5,230.833 59.5,218.5C 64.8333,218.5 70.1667,218.5 75.5,218.5 Z"/></g>
<g><path style="opacity:1" fill="#9dc6fb" d="M 75.5,218.5 C 82.8333,218.5 90.1667,218.5 97.5,218.5C 97.5,230.833 97.5,243.167 97.5,255.5C 90.1667,255.5 82.8333,255.5 75.5,255.5C 75.5,243.167 75.5,230.833 75.5,218.5 Z"/></g>
<g><path style="opacity:1" fill="#bbd5f7" d="M 412.5,218.5 C 425.5,218.5 438.5,218.5 451.5,218.5C 451.5,231.167 451.5,243.833 451.5,256.5C 438.5,256.5 425.5,256.5 412.5,256.5C 412.5,243.833 412.5,231.167 412.5,218.5 Z"/></g>
<g><path style="opacity:1" fill="#020202" d="M 154.5,221.5 C 179.502,221.333 204.502,221.5 229.5,222C 234.333,224.167 237.833,227.667 240,232.5C 240.667,247.167 240.667,261.833 240,276.5C 238.5,283.333 234.333,287.5 227.5,289C 203.167,289.667 178.833,289.667 154.5,289C 149.056,287.376 145.556,283.876 144,278.5C 143.333,262.833 143.333,247.167 144,231.5C 146.354,226.916 149.854,223.583 154.5,221.5 Z"/></g>
<g><path style="opacity:1" fill="#010101" d="M 281.5,221.5 C 306.502,221.333 331.502,221.5 356.5,222C 360.948,224.114 364.448,227.281 367,231.5C 367.667,247.167 367.667,262.833 367,278.5C 364.635,284.202 360.469,287.702 354.5,289C 330.167,289.667 305.833,289.667 281.5,289C 275.798,286.635 272.298,282.469 271,276.5C 270.333,261.833 270.333,247.167 271,232.5C 273.357,227.645 276.857,223.979 281.5,221.5 Z"/></g>
<g><path style="opacity:1" fill="#bdd7fa" d="M 203.5,236.5 C 203.813,249.246 203.48,261.913 202.5,274.5C 187.833,274.5 173.167,274.5 158.5,274.5C 158.5,261.833 158.5,249.167 158.5,236.5C 173.5,236.5 188.5,236.5 203.5,236.5 Z"/></g>
<g><path style="opacity:1" fill="#9cc5fa" d="M 203.5,236.5 C 210.833,236.5 218.167,236.5 225.5,236.5C 225.5,249.167 225.5,261.833 225.5,274.5C 217.833,274.5 210.167,274.5 202.5,274.5C 203.48,261.913 203.813,249.246 203.5,236.5 Z"/></g>
<g><path style="opacity:1" fill="#bdd7fa" d="M 330.5,236.5 C 330.5,249.167 330.5,261.833 330.5,274.5C 315.5,274.5 300.5,274.5 285.5,274.5C 285.5,261.833 285.5,249.167 285.5,236.5C 300.5,236.5 315.5,236.5 330.5,236.5 Z"/></g>
<g><path style="opacity:1" fill="#9cc5fa" d="M 330.5,236.5 C 337.833,236.5 345.167,236.5 352.5,236.5C 352.5,249.167 352.5,261.833 352.5,274.5C 345.167,274.5 337.833,274.5 330.5,274.5C 330.5,261.833 330.5,249.167 330.5,236.5 Z"/></g>
<g><path style="opacity:1" fill="#5c718d" d="M 97.5,218.5 C 98.4954,230.989 98.8287,243.656 98.5,256.5C 85.3226,256.829 72.3226,256.495 59.5,255.5C 64.8333,255.5 70.1667,255.5 75.5,255.5C 82.8333,255.5 90.1667,255.5 97.5,255.5C 97.5,243.167 97.5,230.833 97.5,218.5 Z"/></g>
<g><path style="opacity:1" fill="#878787" d="M 97.5,271.5 C 98.494,281.319 98.8274,291.319 98.5,301.5C 84.8333,301.5 71.1667,301.5 57.5,301.5C 70.6562,300.504 83.9895,300.171 97.5,300.5C 97.5,290.833 97.5,281.167 97.5,271.5 Z"/></g>
<g><path style="opacity:1" fill="#bcd6f9" d="M 75.5,316.5 C 75.5,328.833 75.5,341.167 75.5,353.5C 70.1667,353.5 64.8333,353.5 59.5,353.5C 59.5,341.167 59.5,328.833 59.5,316.5C 64.8333,316.5 70.1667,316.5 75.5,316.5 Z"/></g>
<g><path style="opacity:1" fill="#9dc6fb" d="M 75.5,316.5 C 82.8333,316.5 90.1667,316.5 97.5,316.5C 97.5,328.833 97.5,341.167 97.5,353.5C 90.1667,353.5 82.8333,353.5 75.5,353.5C 75.5,341.167 75.5,328.833 75.5,316.5 Z"/></g>
<g><path style="opacity:1" fill="#bbd4f7" d="M 412.5,316.5 C 425.5,316.5 438.5,316.5 451.5,316.5C 451.5,329.167 451.5,341.833 451.5,354.5C 438.5,354.5 425.5,354.5 412.5,354.5C 412.5,341.833 412.5,329.167 412.5,316.5 Z"/></g>
<g><path style="opacity:1" fill="#8a7f8d" d="M 315.5,334.5 C 315.5,339.5 315.5,344.5 315.5,349.5C 268.167,349.5 220.833,349.5 173.5,349.5C 173.5,344.5 173.5,339.5 173.5,334.5C 220.833,334.5 268.167,334.5 315.5,334.5 Z"/></g>
<g><path style="opacity:1" fill="#756c77" d="M 315.5,334.5 C 322.833,334.5 330.167,334.5 337.5,334.5C 337.5,339.5 337.5,344.5 337.5,349.5C 330.167,349.5 322.833,349.5 315.5,349.5C 315.5,344.5 315.5,339.5 315.5,334.5 Z"/></g>
<g><path style="opacity:1" fill="#546881" d="M 97.5,316.5 C 98.4954,328.989 98.8287,341.656 98.5,354.5C 85.3226,354.829 72.3226,354.495 59.5,353.5C 64.8333,353.5 70.1667,353.5 75.5,353.5C 82.8333,353.5 90.1667,353.5 97.5,353.5C 97.5,341.167 97.5,328.833 97.5,316.5 Z"/></g>
<g><path style="opacity:1" fill="#645d66" d="M 179.5,445.5 C 181.807,438.698 182.14,431.698 180.5,424.5C 184.42,424.957 186.92,423.291 188,419.5C 188.5,401.17 188.667,382.836 188.5,364.5C 208.167,364.5 227.833,364.5 247.5,364.5C 247.5,408.5 247.5,452.5 247.5,496.5C 227.833,496.5 208.167,496.5 188.5,496.5C 188.667,480.83 188.5,465.163 188,449.5C 186.15,446.159 183.317,444.826 179.5,445.5 Z"/></g>
<g><path style="opacity:1" fill="#645d66" d="M 300.5,364.5 C 300.5,408.5 300.5,452.5 300.5,496.5C 288.167,496.5 275.833,496.5 263.5,496.5C 263.5,452.5 263.5,408.5 263.5,364.5C 275.833,364.5 288.167,364.5 300.5,364.5 Z"/></g>
<g><path style="opacity:1" fill="#534f55" d="M 300.5,364.5 C 307.833,364.5 315.167,364.5 322.5,364.5C 322.5,408.5 322.5,452.5 322.5,496.5C 315.167,496.5 307.833,496.5 300.5,496.5C 300.5,452.5 300.5,408.5 300.5,364.5 Z"/></g>
<g><path style="opacity:1" fill="#bcd6f9" d="M 75.5,413.5 C 75.5,426.167 75.5,438.833 75.5,451.5C 70.1667,451.5 64.8333,451.5 59.5,451.5C 59.5,438.833 59.5,426.167 59.5,413.5C 64.8333,413.5 70.1667,413.5 75.5,413.5 Z"/></g>
<g><path style="opacity:1" fill="#99c1f5" d="M 75.5,413.5 C 83.1667,413.5 90.8333,413.5 98.5,413.5C 98.5,426.167 98.5,438.833 98.5,451.5C 90.8333,451.5 83.1667,451.5 75.5,451.5C 75.5,438.833 75.5,426.167 75.5,413.5 Z"/></g>
<g><path style="opacity:1" fill="#bdd7f9" d="M 412.5,413.5 C 425.5,413.5 438.5,413.5 451.5,413.5C 451.5,426.167 451.5,438.833 451.5,451.5C 438.5,451.5 425.5,451.5 412.5,451.5C 412.5,438.833 412.5,426.167 412.5,413.5 Z"/></g>
<g><path style="opacity:1" fill="#010101" d="M 222.5,415.5 C 226.684,414.704 229.85,416.037 232,419.5C 232.667,426.833 232.667,434.167 232,441.5C 229.019,445.696 225.186,446.529 220.5,444C 219.874,443.25 219.374,442.416 219,441.5C 218.333,434.167 218.333,426.833 219,419.5C 219.69,417.65 220.856,416.316 222.5,415.5 Z"/></g>
<g><path style="opacity:1" fill="#010101" d="M 282.5,415.5 C 286.684,414.704 289.85,416.037 292,419.5C 292.667,426.833 292.667,434.167 292,441.5C 289.019,445.696 285.186,446.529 280.5,444C 279.874,443.25 279.374,442.416 279,441.5C 278.333,434.167 278.333,426.833 279,419.5C 279.69,417.65 280.856,416.316 282.5,415.5 Z"/></g>
</svg>
