<svg width="494" height="118.30805655840588" viewBox="0 0 369.89473684210526 88.58608794933694" class="looka-1j8o68f"><defs id="SvgjsDefs1520"><linearGradient id="SvgjsLinearGradient1525"><stop id="SvgjsStop1526" stop-color="#905e26" offset="0"></stop><stop id="SvgjsStop1527" stop-color="#f5ec9b" offset="0.5"></stop><stop id="SvgjsStop1528" stop-color="#905e26" offset="1"></stop></linearGradient><linearGradient id="SvgjsLinearGradient1529"><stop id="SvgjsStop1530" stop-color="#905e26" offset="0"></stop><stop id="SvgjsStop1531" stop-color="#f5ec9b" offset="0.5"></stop><stop id="SvgjsStop1532" stop-color="#905e26" offset="1"></stop></linearGradient></defs><g id="SvgjsG1521" featurekey="5TMTKC-0" transform="matrix(1.213508054100506,0,0,1.213508054100506,-7.523749703964845,-9.708064432804049)" fill="url(#SvgjsLinearGradient1525)"><polygon xmlns="http://www.w3.org/2000/svg" points="49.8,57.3 46,68.2 46,68 15.7,68 32.5,81 55.6,81 65.4,50.7 54.6,42.9 "></polygon><polygon xmlns="http://www.w3.org/2000/svg" points="53.7,39.6 53.7,39.6 67.7,49.8 58.2,79.1 75,66.9 82.1,44.9 56.4,26.3 45.9,33.9 "></polygon><polygon xmlns="http://www.w3.org/2000/svg" points="81.4,41.9 75,22.2 56.3,8.7 30.8,27.2 34.8,39.6 56.4,23.8 "></polygon><polygon xmlns="http://www.w3.org/2000/svg" points="34,42.8 28.6,26.2 53.2,8 32.5,8 13.8,21.8 23.5,52 36.7,52 34,42.8 "></polygon><polygon xmlns="http://www.w3.org/2000/svg" points="39.4,54 22.1,54 12.6,24.9 6.2,44.3 13.4,66 44.9,66 49,54 "></polygon></g><g id="SvgjsG1522" featurekey="7UBp9i-0" transform="matrix(3.376469574703534,0,0,3.376469574703534,109.4338807403866,-4.1654066983112905)" fill="url(#SvgjsLinearGradient1529)"><path d="M7.78 5.380000000000001 c1.6667 0 3.0666 0.47 4.2 1.41 s1.7867 2.1834 1.96 3.73 l-3.04 0 c-0.10666 -0.70666 -0.46 -1.3 -1.06 -1.78 s-1.2867 -0.72 -2.06 -0.72 c-1.2267 0 -2.18 0.44 -2.86 1.32 s-1.02 2.0734 -1.02 3.58 c0 1.4667 0.34334 2.63 1.03 3.49 s1.6367 1.29 2.85 1.29 c0.90666 0 1.64 -0.27666 2.2 -0.83 s0.90666 -1.3433 1.04 -2.37 l3.04 0 c-0.16 1.8133 -0.81 3.24 -1.95 4.28 s-2.5834 1.56 -4.33 1.56 c-2.0934 0 -3.7866 -0.69 -5.08 -2.07 s-1.94 -3.1634 -1.94 -5.35 c0 -2.2134 0.64 -4.0234 1.92 -5.43 s2.98 -2.11 5.1 -2.11 z M18.82 5.720000000000001 l0 14.28 l-2.84 0 l0 -14.28 l2.84 0 z M26.08 9.38 c1.6533 0 2.96 0.50334 3.92 1.51 s1.44 2.3234 1.44 3.95 c0 1.64 -0.49 2.9566 -1.47 3.95 s-2.2766 1.49 -3.89 1.49 c-1.64 0 -2.94 -0.50334 -3.9 -1.51 s-1.44 -2.3166 -1.44 -3.93 c0 -1.6667 0.49 -2.9934 1.47 -3.98 s2.27 -1.48 3.87 -1.48 z M23.580000000000002 14.84 c0 1.0533 0.21334 1.8666 0.64 2.44 s1.0467 0.86 1.86 0.86 c0.84 0 1.47 -0.29334 1.89 -0.88 s0.63 -1.3933 0.63 -2.42 c0 -1.0667 -0.21666 -1.8867 -0.65 -2.46 s-1.0633 -0.86 -1.89 -0.86 c-0.8 0 -1.4133 0.28666 -1.84 0.86 s-0.64 1.3933 -0.64 2.46 z M37.52 9.38 c1.3867 0 2.47 0.28002 3.25 0.84002 s1.2167 1.38 1.31 2.46 l-2.7 0 c-0.04 -0.49334 -0.22 -0.85 -0.54 -1.07 s-0.78666 -0.33 -1.4 -0.33 c-0.53334 0 -0.93 0.08 -1.19 0.24 s-0.39 0.4 -0.39 0.72 c0 0.24 0.08666 0.44 0.26 0.6 s0.43668 0.3 0.79002 0.42 s0.74334 0.22 1.17 0.3 c1.2933 0.25334 2.2066 0.51334 2.74 0.78 s0.92334 0.58666 1.17 0.96 s0.37 0.83334 0.37 1.38 c0 1.16 -0.42334 2.05 -1.27 2.67 s-1.9967 0.93 -3.45 0.93 c-1.52 0 -2.7034 -0.32666 -3.55 -0.98 s-1.2833 -1.54 -1.31 -2.66 l2.7 0 c0 0.53334 0.20666 0.95668 0.62 1.27 s0.93334 0.47 1.56 0.47 c0.53334 0 0.97668 -0.11666 1.33 -0.35 s0.53 -0.55668 0.53 -0.97002 c0 -0.26666 -0.11 -0.48666 -0.33 -0.66 s-0.53 -0.32668 -0.93 -0.46002 s-1.02 -0.28668 -1.86 -0.46002 c-0.66666 -0.13334 -1.26 -0.31334 -1.78 -0.54 s-0.91666 -0.52332 -1.19 -0.88998 s-0.41 -0.81666 -0.41 -1.35 c0 -0.68 0.16334 -1.2733 0.49 -1.78 s0.82666 -0.89 1.5 -1.15 s1.51 -0.39 2.51 -0.39 z M48.800000000000004 9.38 c0.97334 0 1.84 0.22664 2.6 0.67998 s1.3567 1.11 1.79 1.97 s0.65 1.85 0.65 2.97 c0 0.10666 -0.0066602 0.28 -0.02 0.52 l-7.46 0 c0.02666 0.82666 0.24332 1.47 0.64998 1.93 s1.03 0.69 1.87 0.69 c0.52 0 0.99666 -0.13 1.43 -0.39 s0.71 -0.57666 0.83 -0.95 l2.5 0 c-0.73334 2.32 -2.3466 3.48 -4.84 3.48 c-0.94666 -0.01334 -1.8233 -0.22 -2.63 -0.62 s-1.45 -1.0233 -1.93 -1.87 s-0.72 -1.83 -0.72 -2.95 c0 -1.0533 0.24334 -2.0134 0.73 -2.88 s1.1333 -1.5133 1.94 -1.94 s1.6767 -0.64 2.61 -0.64 z M50.980000000000004 13.719999999999999 c-0.13334 -0.77334 -0.38 -1.3333 -0.74 -1.68 s-0.87334 -0.52 -1.54 -0.52 c-0.69334 0 -1.24 0.19666 -1.64 0.59 s-0.63334 0.93 -0.7 1.61 l4.62 0 z M58.34 5.720000000000001 l0.000019531 5.2 l0.04 0 c0.30666 -0.46666 0.74332 -0.84 1.31 -1.12 s1.2167 -0.42 1.95 -0.42 c1.2667 0 2.2966 0.50666 3.09 1.52 s1.19 2.32 1.19 3.92 c0 1.6133 -0.39334 2.9266 -1.18 3.94 s-1.8267 1.52 -3.12 1.52 c-1.68 0 -2.8066 -0.53334 -3.38 -1.6 l-0.04 0 l0 1.32 l-2.7 0 l0 -14.28 l2.84 0 z M58.24 14.84 c0 1 0.21998 1.8 0.65998 2.4 s1.0267 0.9 1.76 0.9 c0.72 0 1.3033 -0.29334 1.75 -0.88 s0.67 -1.3933 0.67 -2.42 c0 -1.0133 -0.21666 -1.82 -0.65 -2.42 s-1.03 -0.9 -1.79 -0.9 c-0.74666 0 -1.3333 0.30666 -1.76 0.92 s-0.64 1.4133 -0.64 2.4 z M69.56 9.66 l2.34 7.08 l0.04 0 l2.26 -7.08 l2.94 0 l-4.32 11.64 c-0.30666 0.81334 -0.73 1.4067 -1.27 1.78 s-1.29 0.56 -2.25 0.56 c-0.41334 0 -1.0067 -0.03334 -1.78 -0.1 l0 -2.34 c0.50666 0.06666 1.0067 0.1 1.5 0.1 c0.4 0 0.71 -0.12334 0.93 -0.37 s0.33 -0.55666 0.33 -0.93 c0 -0.21334 -0.04 -0.42668 -0.12 -0.64002 l-3.64 -9.7 l3.04 0 z"></path></g></svg>