<?xml version="1.0" encoding="UTF-8"?>
<!DOCTYPE svg PUBLIC "-//W3C//DTD SVG 1.1//EN" "http://www.w3.org/Graphics/SVG/1.1/DTD/svg11.dtd">
<svg xmlns="http://www.w3.org/2000/svg" version="1.1" width="512px" height="512px" style="shape-rendering:geometricPrecision; text-rendering:geometricPrecision; image-rendering:optimizeQuality; fill-rule:evenodd; clip-rule:evenodd" xmlns:xlink="http://www.w3.org/1999/xlink">
<g><path style="opacity:0.989" fill="#010101" d="M 479.5,495.5 C 479.5,468.833 479.5,442.167 479.5,415.5C 479.5,410.167 479.5,404.833 479.5,399.5C 463.5,399.5 447.5,399.5 431.5,399.5C 431.5,404.833 431.5,410.167 431.5,415.5C 431.5,442.167 431.5,468.833 431.5,495.5C 426.167,495.5 420.833,495.5 415.5,495.5C 415.5,455.5 415.5,415.5 415.5,375.5C 405.833,375.5 396.167,375.5 386.5,375.5C 342.833,375.5 299.167,375.5 255.5,375.5C 255.5,415.5 255.5,455.5 255.5,495.5C 250.167,495.5 244.833,495.5 239.5,495.5C 239.5,455.5 239.5,415.5 239.5,375.5C 236.491,375.423 234.324,376.756 233,379.5C 208.333,412.167 183.667,444.833 159,477.5C 146.094,493.358 129.594,498.858 109.5,494C 93.7242,488.558 83.8909,477.724 80,461.5C 79.3333,401.167 79.3333,340.833 80,280.5C 83.7961,269.198 91.6294,263.532 103.5,263.5C 103.051,253.395 103.551,243.395 105,233.5C 105.75,232.874 106.584,232.374 107.5,232C 114.158,231.5 120.825,231.334 127.5,231.5C 127.5,225.833 127.5,220.167 127.5,214.5C 94.7991,210.328 62.1324,205.828 29.5,201C 22.9511,200.116 18.4511,196.616 16,190.5C 15.3333,172.833 15.3333,155.167 16,137.5C 17.8333,133 21,129.833 25.5,128C 32.8258,127.5 40.1591,127.334 47.5,127.5C 47.3335,118.161 47.5002,108.827 48,99.5C 48.5,97.6667 49.6667,96.5 51.5,96C 107.5,95.3333 163.5,95.3333 219.5,96C 221.333,96.5 222.5,97.6667 223,99.5C 223.333,114.167 223.667,128.833 224,143.5C 227.067,131.432 234.567,123.599 246.5,120C 245.861,117.589 245.527,115.089 245.5,112.5C 247.153,95.2323 247.987,77.899 248,60.5C 253.5,36.3333 268.333,21.5 292.5,16C 321.167,15.3333 349.833,15.3333 378.5,16C 402.667,21.5 417.5,36.3333 423,60.5C 423.013,77.899 423.847,95.2323 425.5,112.5C 425.473,115.089 425.139,117.589 424.5,120C 442.705,126.895 450.205,140.062 447,159.5C 444.354,169.31 438.52,176.477 429.5,181C 425.037,182.975 420.371,183.808 415.5,183.5C 415.727,211.038 405.227,233.372 384,250.5C 383.501,255.155 383.334,259.821 383.5,264.5C 404.534,267.005 425.534,269.838 446.5,273C 472.68,277.514 488.847,292.681 495,318.5C 495.5,377.499 495.667,436.499 495.5,495.5C 490.167,495.5 484.833,495.5 479.5,495.5 Z M 31.5,143.5 C 36.8333,143.5 42.1667,143.5 47.5,143.5C 47.3335,152.839 47.5002,162.173 48,171.5C 48.3742,172.416 48.8742,173.25 49.5,174C 81.0865,175.153 112.753,175.986 144.5,176.5C 150.866,189.433 161.033,194.099 175,190.5C 172.386,206.117 178.219,216.95 192.5,223C 205.828,225.917 215.662,221.417 222,209.5C 223.29,192.9 223.957,176.233 224,159.5C 226.646,169.31 232.48,176.477 241.5,181C 245.963,182.975 250.629,183.808 255.5,183.5C 255.272,211.037 265.772,233.37 287,250.5C 287.499,255.155 287.666,259.821 287.5,264.5C 258.806,270.472 230.139,276.639 201.5,283C 192.273,285.945 183.939,290.445 176.5,296.5C 175.671,291.198 175.171,285.864 175,280.5C 173.928,276.02 171.594,272.353 168,269.5C 167.96,257.404 167.293,245.404 166,233.5C 165.25,232.874 164.416,232.374 163.5,232C 156.842,231.5 150.175,231.334 143.5,231.5C 143.666,223.826 143.5,216.159 143,208.5C 141.167,204 138,200.833 133.5,199C 99.5821,193.559 65.5821,188.726 31.5,184.5C 31.5,170.833 31.5,157.167 31.5,143.5 Z"/></g>
<g><path style="opacity:1" fill="#2f85cc" d="M 376.5,32.5 C 376.649,33.552 376.483,34.552 376,35.5C 353.876,61.4783 327.376,81.4783 296.5,95.5C 285.5,95.5 274.5,95.5 263.5,95.5C 263.085,83.4379 263.585,71.4379 265,59.5C 270.435,45.0645 280.601,35.8978 295.5,32C 322.572,31.1763 349.572,31.343 376.5,32.5 Z"/></g>
<g><path style="opacity:1" fill="#2c7cbe" d="M 376.5,32.5 C 392.54,37.0404 402.707,47.3737 407,63.5C 407.5,74.1615 407.667,84.8281 407.5,95.5C 370.5,95.5 333.5,95.5 296.5,95.5C 327.376,81.4783 353.876,61.4783 376,35.5C 376.483,34.552 376.649,33.552 376.5,32.5 Z"/></g>
<g><path style="opacity:1" fill="#338ed8" d="M 143.5,127.5 C 116.833,127.5 90.1667,127.5 63.5,127.5C 63.5,122.167 63.5,116.833 63.5,111.5C 111.5,111.5 159.5,111.5 207.5,111.5C 207.667,141.835 207.5,172.168 207,202.5C 204.774,206.861 201.274,208.361 196.5,207C 194.333,206.167 192.833,204.667 192,202.5C 191.667,189.833 191.333,177.167 191,164.5C 187.911,159.695 183.744,158.528 178.5,161C 177.299,161.903 176.465,163.069 176,164.5C 175.064,175.133 170.064,177.8 161,172.5C 159.533,157.597 159.033,142.597 159.5,127.5C 154.167,127.5 148.833,127.5 143.5,127.5 Z"/></g>
<g><path style="opacity:1" fill="#328bd3" d="M 261.5,111.5 C 310.833,111.5 360.167,111.5 409.5,111.5C 408.652,122.683 402.652,128.349 391.5,128.5C 378.511,126.602 365.511,124.769 352.5,123C 329.253,121.321 306.253,122.988 283.5,128C 270.305,130.304 262.972,124.804 261.5,111.5 Z"/></g>
<g><path style="opacity:1" fill="#dfdfdd" d="M 63.5,127.5 C 90.1667,127.5 116.833,127.5 143.5,127.5C 143.5,129.833 143.5,132.167 143.5,134.5C 117.075,140.085 90.4082,144.085 63.5,146.5C 63.5,140.167 63.5,133.833 63.5,127.5 Z"/></g>
<g><path style="opacity:1" fill="#d6d6d4" d="M 143.5,134.5 C 143.5,142.833 143.5,151.167 143.5,159.5C 116.833,159.5 90.1667,159.5 63.5,159.5C 63.5,155.167 63.5,150.833 63.5,146.5C 90.4082,144.085 117.075,140.085 143.5,134.5 Z"/></g>
<g><path style="opacity:1" fill="#f9b381" d="M 250.5,135.5 C 252.167,135.5 253.833,135.5 255.5,135.5C 255.5,146.167 255.5,156.833 255.5,167.5C 241.073,164.651 236.573,156.317 242,142.5C 244.441,139.546 247.275,137.213 250.5,135.5 Z"/></g>
<g><path style="opacity:1" fill="#f8b280" d="M 415.5,135.5 C 429.927,138.349 434.427,146.683 429,160.5C 425.64,165.096 421.14,167.429 415.5,167.5C 415.5,156.833 415.5,146.167 415.5,135.5 Z"/></g>
<g><path style="opacity:1" fill="#fcbe92" d="M 344.5,247.5 C 360.022,232.117 368.856,213.451 371,191.5C 371.5,180.839 371.667,170.172 371.5,159.5C 380.169,157.82 384.503,152.487 384.5,143.5C 389.435,144.448 394.435,144.781 399.5,144.5C 399.667,158.837 399.5,173.171 399,187.5C 397.282,217.15 382.448,236.65 354.5,246C 351.146,246.455 347.813,246.955 344.5,247.5 Z"/></g>
<g><path style="opacity:1" fill="#fcc7a1" d="M 371.5,159.5 C 371.667,170.172 371.5,180.839 371,191.5C 368.856,213.451 360.022,232.117 344.5,247.5C 299.193,250.099 275.027,228.765 272,183.5C 271.5,170.504 271.333,157.504 271.5,144.5C 277.212,144.456 282.879,144.289 288.5,144C 286.787,152.81 290.454,157.977 299.5,159.5C 310.383,157.201 313.716,150.867 309.5,140.5C 310.333,140.167 311.167,139.833 312,139.5C 326.992,138.201 341.992,138.201 357,139.5C 358.5,139.833 360,140.167 361.5,140.5C 357.195,150.892 360.529,157.225 371.5,159.5 Z"/></g>
<g><path style="opacity:1" fill="#050403" d="M 354.5,176.5 C 357.849,180.676 360.849,185.176 363.5,190C 349.835,197.581 335.169,200.748 319.5,199.5C 319.5,194.167 319.5,188.833 319.5,183.5C 332.069,184.91 343.736,182.577 354.5,176.5 Z"/></g>
<g><path style="opacity:1" fill="#f88500" d="M 119.5,247.5 C 130.167,247.5 140.833,247.5 151.5,247.5C 151.5,252.833 151.5,258.167 151.5,263.5C 140.833,263.5 130.167,263.5 119.5,263.5C 119.5,258.167 119.5,252.833 119.5,247.5 Z"/></g>
<g><path style="opacity:1" fill="#fab482" d="M 367.5,266.5 C 346.125,273.046 324.792,273.046 303.5,266.5C 303.336,263.813 303.503,261.146 304,258.5C 313.343,262.774 323.177,264.44 333.5,263.5C 345.036,264.049 356.203,262.382 367,258.5C 367.497,261.146 367.664,263.813 367.5,266.5 Z"/></g>
<g><path style="opacity:1" fill="#fbc6a1" d="M 303.5,266.5 C 324.792,273.046 346.125,273.046 367.5,266.5C 368.214,288.766 357.547,301.099 335.5,303.5C 313.453,301.099 302.786,288.766 303.5,266.5 Z"/></g>
<g><path style="opacity:1" fill="#fdc8a2" d="M 133.5,279.5 C 133.987,280.473 134.487,281.473 135,282.5C 135.667,301.167 135.667,319.833 135,338.5C 134.648,340.247 134.148,341.914 133.5,343.5C 121.732,343.957 110.065,343.457 98.5,342C 97.2986,341.097 96.4652,339.931 96,338.5C 95.3333,320.5 95.3333,302.5 96,284.5C 96.4652,283.069 97.2986,281.903 98.5,281C 110.065,279.543 121.732,279.043 133.5,279.5 Z"/></g>
<g><path style="opacity:1" fill="#fdbf92" d="M 133.5,279.5 C 140.508,279.334 147.508,279.5 154.5,280C 155.931,280.465 157.097,281.299 158,282.5C 159.142,291.904 159.642,301.404 159.5,311C 159.629,320.903 159.129,330.737 158,340.5C 156.829,341.893 155.329,342.727 153.5,343C 146.842,343.5 140.175,343.666 133.5,343.5C 134.148,341.914 134.648,340.247 135,338.5C 135.667,319.833 135.667,301.167 135,282.5C 134.487,281.473 133.987,280.473 133.5,279.5 Z"/></g>
<g><path style="opacity:1" fill="#2c7cbe" d="M 391.5,282.5 C 399.552,283.127 407.552,284.127 415.5,285.5C 415.5,310.167 415.5,334.833 415.5,359.5C 407.5,359.5 399.5,359.5 391.5,359.5C 391.5,333.833 391.5,308.167 391.5,282.5 Z"/></g>
<g><path style="opacity:1" fill="#2c7cbe" d="M 274.5,283.5 C 276.167,283.5 277.833,283.5 279.5,283.5C 279.5,308.833 279.5,334.167 279.5,359.5C 271.5,359.5 263.5,359.5 255.5,359.5C 255.5,335.5 255.5,311.5 255.5,287.5C 262.053,286.657 268.386,285.324 274.5,283.5 Z"/></g>
<g><path style="opacity:1" fill="#dfdfdd" d="M 431.5,287.5 C 449.349,287.175 463.516,294.175 474,308.5C 476.455,312.531 478.121,316.864 479,321.5C 479.5,342.164 479.667,362.831 479.5,383.5C 463.5,383.5 447.5,383.5 431.5,383.5C 431.5,351.5 431.5,319.5 431.5,287.5 Z"/></g>
<g><path style="opacity:1" fill="#dededc" d="M 236.5,291.5 C 237.5,291.5 238.5,291.5 239.5,291.5C 239.5,314.167 239.5,336.833 239.5,359.5C 235.033,359.133 230.7,359.633 226.5,361C 221.04,368.957 215.04,376.457 208.5,383.5C 195.995,372.161 183.662,360.661 171.5,349C 173.09,345.987 174.257,342.82 175,339.5C 175.333,333.5 175.667,327.5 176,321.5C 183.324,310.75 193.158,303.25 205.5,299C 215.996,296.625 226.329,294.125 236.5,291.5 Z"/></g>
<g><path style="opacity:1" fill="#dfdfdd" d="M 295.5,298.5 C 315.045,322.104 338.045,325.937 364.5,310C 368.369,306.466 371.869,302.633 375,298.5C 375.5,318.831 375.667,339.164 375.5,359.5C 348.833,359.5 322.167,359.5 295.5,359.5C 295.5,339.167 295.5,318.833 295.5,298.5 Z"/></g>
<g><path style="opacity:1" fill="#fdc8a2" d="M 95.5,358.5 C 98.0961,359.265 100.763,359.599 103.5,359.5C 103.334,368.173 103.5,376.84 104,385.5C 104.273,387.329 105.107,388.829 106.5,390C 118.733,391.46 131.066,391.96 143.5,391.5C 143.667,414.836 143.5,438.169 143,461.5C 135.795,478.455 123.961,482.955 107.5,475C 101.755,470.908 97.9219,465.408 96,458.5C 95.5,425.168 95.3333,391.835 95.5,358.5 Z"/></g>
<g><path style="opacity:1" fill="#f88500" d="M 119.5,359.5 C 130.167,359.5 140.833,359.5 151.5,359.5C 151.5,364.833 151.5,370.167 151.5,375.5C 140.833,375.5 130.167,375.5 119.5,375.5C 119.5,370.167 119.5,364.833 119.5,359.5 Z"/></g>
<g><path style="opacity:1" fill="#fbb582" d="M 167.5,368.5 C 178.627,377.127 188.96,386.627 198.5,397C 185.794,414.239 172.96,431.405 160,448.5C 159.167,429.491 159.334,410.491 160.5,391.5C 164.124,391.041 166.291,389.041 167,385.5C 167.499,379.843 167.666,374.176 167.5,368.5 Z"/></g>
<g><path style="opacity:1" fill="#338ed8" d="M 386.5,375.5 C 370.5,391.5 354.5,407.5 338.5,423.5C 317.831,423.333 297.164,423.5 276.5,424C 275.069,424.465 273.903,425.299 273,426.5C 271.357,447.411 271.023,468.411 272,489.5C 272.599,492.254 274.099,494.254 276.5,495.5C 269.5,495.5 262.5,495.5 255.5,495.5C 255.5,455.5 255.5,415.5 255.5,375.5C 299.167,375.5 342.833,375.5 386.5,375.5 Z"/></g>
<g><path style="opacity:1" fill="#2f85cc" d="M 386.5,375.5 C 396.167,375.5 405.833,375.5 415.5,375.5C 415.5,415.5 415.5,455.5 415.5,495.5C 408.167,495.5 400.833,495.5 393.5,495.5C 396.484,494.679 398.317,492.679 399,489.5C 399.977,468.411 399.643,447.411 398,426.5C 396.829,425.107 395.329,424.273 393.5,424C 375.17,423.5 356.836,423.333 338.5,423.5C 354.5,407.5 370.5,391.5 386.5,375.5 Z"/></g>
<g><path style="opacity:1" fill="#000000" d="M 271.5,391.5 C 276.833,391.5 282.167,391.5 287.5,391.5C 287.5,396.833 287.5,402.167 287.5,407.5C 282.167,407.5 276.833,407.5 271.5,407.5C 271.5,402.167 271.5,396.833 271.5,391.5 Z"/></g>
<g><path style="opacity:1" fill="#000000" d="M 383.5,391.5 C 388.833,391.5 394.167,391.5 399.5,391.5C 399.5,396.833 399.5,402.167 399.5,407.5C 394.167,407.5 388.833,407.5 383.5,407.5C 383.5,402.167 383.5,396.833 383.5,391.5 Z"/></g>
<g><path style="opacity:1" fill="#fdc092" d="M 479.5,415.5 C 463.5,415.5 447.5,415.5 431.5,415.5C 431.5,410.167 431.5,404.833 431.5,399.5C 447.5,399.5 463.5,399.5 479.5,399.5C 479.5,404.833 479.5,410.167 479.5,415.5 Z"/></g>
<g><path style="opacity:1" fill="#fdc9a2" d="M 431.5,415.5 C 447.5,415.5 463.5,415.5 479.5,415.5C 479.5,442.167 479.5,468.833 479.5,495.5C 463.5,495.5 447.5,495.5 431.5,495.5C 431.5,468.833 431.5,442.167 431.5,415.5 Z"/></g>
<g><path style="opacity:1" fill="#000000" d="M 338.5,423.5 C 356.836,423.333 375.17,423.5 393.5,424C 395.329,424.273 396.829,425.107 398,426.5C 399.643,447.411 399.977,468.411 399,489.5C 398.317,492.679 396.484,494.679 393.5,495.5C 354.5,495.5 315.5,495.5 276.5,495.5C 274.099,494.254 272.599,492.254 272,489.5C 271.023,468.411 271.357,447.411 273,426.5C 273.903,425.299 275.069,424.465 276.5,424C 297.164,423.5 317.831,423.333 338.5,423.5 Z"/></g>
<g><path style="opacity:1" fill="#62a9e6" d="M 287.5,439.5 C 319.5,439.5 351.5,439.5 383.5,439.5C 383.5,452.833 383.5,466.167 383.5,479.5C 351.5,479.5 319.5,479.5 287.5,479.5C 287.5,466.167 287.5,452.833 287.5,439.5 Z"/></g>
</svg>
