<?xml version="1.0" encoding="UTF-8"?>
<!DOCTYPE svg PUBLIC "-//W3C//DTD SVG 1.1//EN" "http://www.w3.org/Graphics/SVG/1.1/DTD/svg11.dtd">
<svg xmlns="http://www.w3.org/2000/svg" version="1.1" width="512px" height="512px" style="shape-rendering:geometricPrecision; text-rendering:geometricPrecision; image-rendering:optimizeQuality; fill-rule:evenodd; clip-rule:evenodd" xmlns:xlink="http://www.w3.org/1999/xlink">
<g><path style="opacity:0.981" fill="#000000" d="M 352.5,-0.5 C 358.833,-0.5 365.167,-0.5 371.5,-0.5C 380.178,1.64873 387.845,5.8154 394.5,12C 431.058,47.89 466.891,84.39 502,121.5C 511.199,138.91 510.532,155.91 500,172.5C 470.5,202 441,231.5 411.5,261C 407.634,263.12 403.967,262.786 400.5,260C 386.667,246.167 372.833,232.333 359,218.5C 357,214.5 357,210.5 359,206.5C 374,191.5 389,176.5 404,161.5C 404.402,160.128 404.902,158.795 405.5,157.5C 404.902,156.205 404.402,154.872 404,153.5C 393.402,145.081 386.235,134.414 382.5,121.5C 375.263,118.548 368.263,115.048 361.5,111C 354.558,104.621 350.058,96.7877 348,87.5C 346.833,86.3333 345.667,85.1667 344.5,84C 322.682,78.19 312.182,64.0233 313,41.5C 314.006,35.4824 316.006,29.8157 319,24.5C 327.33,12.1128 338.497,3.77946 352.5,-0.5 Z"/></g>
<g><path style="opacity:0.947" fill="#000000" d="M 259.5,94.5 C 282.297,94.4703 296.463,105.47 302,127.5C 302.833,128.333 303.667,129.167 304.5,130C 316.308,132.315 325.475,138.482 332,148.5C 334.124,154.22 336.624,159.72 339.5,165C 346.241,166.621 352.407,169.454 358,173.5C 359.483,176.702 359.817,180.036 359,183.5C 355.535,187.967 351.702,192.133 347.5,196C 343.833,198 340.167,198 336.5,196C 311.5,171 286.5,146 261.5,121C 256.417,117.708 251.25,114.541 246,111.5C 243.033,105.226 244.533,100.392 250.5,97C 253.628,96.1588 256.628,95.3254 259.5,94.5 Z"/></g>
<g><path style="opacity:0.985" fill="#000000" d="M 76.5,511.5 C 69.1667,511.5 61.8333,511.5 54.5,511.5C 17.2299,501.032 0.0631886,476.365 3,437.5C 4.81752,427.202 8.81752,417.868 15,409.5C 76.0276,348.806 136.694,287.806 197,226.5C 199.711,221.631 200.044,216.631 198,211.5C 193.763,203.698 190.097,195.698 187,187.5C 185.989,180 186.655,172.667 189,165.5C 193.253,158.663 197.253,151.663 201,144.5C 211.236,127.642 225.736,122.476 244.5,129C 247.433,130.271 250.099,131.938 252.5,134C 310.667,192.167 368.833,250.333 427,308.5C 437,322.5 437,336.5 427,350.5C 420.5,357 414,363.5 407.5,370C 393.5,380 379.5,380 365.5,370C 344.833,353.667 324.167,337.333 303.5,321C 296.833,316.333 290.167,316.333 283.5,321C 224.833,379.667 166.167,438.333 107.5,497C 98.3123,504.443 87.979,509.277 76.5,511.5 Z M 100.5,382.5 C 118.099,383.101 128.099,392.101 130.5,409.5C 130.157,415.363 128.324,420.696 125,425.5C 113.5,437 102,448.5 90.5,460C 74.0972,468.306 60.9305,464.806 51,449.5C 46.875,439.085 48.2083,429.418 55,420.5C 65.5,410 76,399.5 86.5,389C 90.8919,385.967 95.5586,383.8 100.5,382.5 Z"/></g>
<g><path style="opacity:0.956" fill="#000000" d="M 292.5,336.5 C 294.927,336.523 297.26,337.023 299.5,338C 310.275,346.14 320.775,354.64 331,363.5C 333.202,367.742 332.869,371.742 330,375.5C 307.153,403.404 284.486,403.404 262,375.5C 260,371.833 260,368.167 262,364.5C 272.086,354.907 282.253,345.573 292.5,336.5 Z"/></g>
<g><path style="opacity:0.947" fill="#000000" d="M 241.5,385.5 C 244.649,385.211 247.649,385.711 250.5,387C 254.667,391.167 258.833,395.333 263,399.5C 264.879,402.866 264.879,406.2 263,409.5C 253.5,419 244,428.5 234.5,438C 223.823,444.395 212.823,445.062 201.5,440C 197.34,435.874 196.84,431.374 200,426.5C 213.728,412.604 227.562,398.938 241.5,385.5 Z"/></g>
<g><path style="opacity:0.912" fill="#000000" d="M 101.5,398.5 C 113.469,399.578 116.969,405.578 112,416.5C 101.833,426.667 91.6667,436.833 81.5,447C 76.6729,449.147 72.0062,448.814 67.5,446C 63.3999,440.368 63.5666,434.868 68,429.5C 77.1667,420.333 86.3333,411.167 95.5,402C 97.4319,400.541 99.4319,399.375 101.5,398.5 Z"/></g>
</svg>
