<?xml version="1.0" encoding="UTF-8"?>
<!DOCTYPE svg PUBLIC "-//W3C//DTD SVG 1.1//EN" "http://www.w3.org/Graphics/SVG/1.1/DTD/svg11.dtd">
<svg xmlns="http://www.w3.org/2000/svg" version="1.1" width="512px" height="512px" style="shape-rendering:geometricPrecision; text-rendering:geometricPrecision; image-rendering:optimizeQuality; fill-rule:evenodd; clip-rule:evenodd" xmlns:xlink="http://www.w3.org/1999/xlink">
<g><path style="opacity:0.964" fill="#010101" d="M 190.5,7.5 C 200.172,7.33353 209.839,7.5002 219.5,8C 221.333,8.5 222.5,9.66667 223,11.5C 223.667,14.1667 223.667,16.8333 223,19.5C 218.333,26.8333 213.667,34.1667 209,41.5C 207.833,51 212,55.1667 221.5,54C 228.833,49.3333 236.167,44.6667 243.5,40C 247.244,39.0715 250.744,39.5715 254,41.5C 261.488,87.3502 241.988,108.184 195.5,104C 173,126.5 150.5,149 128,171.5C 132.184,217.988 111.35,237.488 65.5,230C 63.5715,226.744 63.0715,223.244 64,219.5C 68.6667,212.167 73.3333,204.833 78,197.5C 79.1667,188 75,183.833 65.5,185C 58.1667,189.667 50.8333,194.333 43.5,199C 40.0357,199.817 36.7024,199.483 33.5,198C 25.2128,151.945 44.5461,130.945 91.5,135C 114,112.5 136.5,90 159,67.5C 159.333,57.8333 159.667,48.1667 160,38.5C 164.349,22.3186 174.516,11.9852 190.5,7.5 Z"/></g>
<g><path style="opacity:1" fill="#c9c9c9" d="M 198.5,63.5 C 161.833,100.833 124.833,137.833 87.5,174.5C 73.8316,164.624 60.6649,165.291 48,176.5C 47.893,164.249 53.7264,156.083 65.5,152C 77.2376,151.936 88.9042,151.27 100.5,150C 125,125.5 149.5,101 174,76.5C 175.27,64.9042 175.936,53.2376 176,41.5C 180.083,29.7264 188.249,23.893 200.5,24C 189.291,36.6649 188.624,49.8316 198.5,63.5 Z"/></g>
<g><path style="opacity:1" fill="#b1b1b1" d="M 87.5,174.5 C 124.833,137.833 161.833,100.833 198.5,63.5C 212.137,74.356 225.637,74.0227 239,62.5C 239.007,75.1782 232.84,83.3449 220.5,87C 209.07,87.043 197.737,87.7097 186.5,89C 162,113.5 137.5,138 113,162.5C 111.708,174.07 111.042,185.737 111,197.5C 106.917,209.274 98.7506,215.107 86.5,215C 98.0227,201.637 98.356,188.137 87.5,174.5 Z"/></g>
<g><path style="opacity:0.99" fill="#000000" d="M 306.5,87.5 C 320.504,87.3334 334.504,87.5001 348.5,88C 367.716,89.1717 383.883,96.6717 397,110.5C 402.238,117.313 405.572,124.979 407,133.5C 407.5,152.83 407.667,172.164 407.5,191.5C 417.168,191.221 425.334,194.554 432,201.5C 440.794,214.185 441.794,227.518 435,241.5C 427.319,251.839 416.986,256.839 404,256.5C 398.833,272.506 389.499,285.506 376,295.5C 375.333,298.5 375.333,301.5 376,304.5C 402.925,311.273 429.758,318.44 456.5,326C 482.228,338.284 497.728,358.45 503,386.5C 503.987,424.918 503.654,463.251 502,501.5C 501.25,502.126 500.416,502.626 499.5,503C 384.833,503.667 270.167,503.667 155.5,503C 153.667,502.5 152.5,501.333 152,499.5C 151.5,490.173 151.334,480.839 151.5,471.5C 130.167,471.5 108.833,471.5 87.5,471.5C 90.295,486.752 84.6284,497.252 70.5,503C 60.5,503.667 50.5,503.667 40.5,503C 26.2193,496.95 20.3859,486.117 23,470.5C 8.77894,463.494 4.11228,452.494 9,437.5C 12.0277,431.639 16.5277,427.306 22.5,424.5C 23.3328,410.178 23.8328,395.845 24,381.5C 25.0032,376.99 26.5032,372.657 28.5,368.5C 11.4774,363.782 4.64411,352.782 8,335.5C 10.4739,327.693 15.6405,322.526 23.5,320C 29.7688,318.743 36.1021,318.243 42.5,318.5C 42.1261,304.504 43.9594,290.837 48,277.5C 55.7561,261.755 68.2561,251.922 85.5,248C 129.5,247.333 173.5,247.333 217.5,248C 221.542,249.245 225.542,250.245 229.5,251C 214.542,238.466 211.375,223.3 220,205.5C 226.618,195.94 235.785,191.274 247.5,191.5C 247.333,172.164 247.5,152.83 248,133.5C 252.346,113.484 264.18,99.9841 283.5,93C 291.194,90.6997 298.86,88.8663 306.5,87.5 Z M 233.5,253.5 C 239.301,254.829 245.134,255.829 251,256.5C 256.167,272.506 265.501,285.506 279,295.5C 279.784,298.76 279.617,301.927 278.5,305C 272.784,306.345 267.118,307.845 261.5,309.5C 259.903,301.94 258.736,294.273 258,286.5C 254.135,272.158 245.969,261.158 233.5,253.5 Z"/></g>
<g><path style="opacity:1" fill="#40a3ed" d="M 324.5,103.5 C 342.009,103.661 353.509,111.994 359,128.5C 359.5,142.163 359.667,155.829 359.5,169.5C 338.165,166.833 316.832,166.833 295.5,169.5C 295.05,154.761 295.55,140.095 297,125.5C 302.23,113.09 311.397,105.756 324.5,103.5 Z"/></g>
<g><path style="opacity:1" fill="#3084ca" d="M 367.5,110.5 C 367.56,109.957 367.893,109.624 368.5,109.5C 380.154,114.991 387.654,123.991 391,136.5C 391.667,150.833 391.667,165.167 391,179.5C 386.125,176.931 380.959,175.264 375.5,174.5C 375.667,158.83 375.5,143.163 375,127.5C 373.539,121.251 371.039,115.584 367.5,110.5 Z"/></g>
<g><path style="opacity:1" fill="#2873b5" d="M 285.5,112.5 C 285.565,112.062 285.399,111.728 285,111.5C 278.513,118.324 274.179,126.324 272,135.5C 271.173,149.006 271.34,162.34 272.5,175.5C 269.785,177.072 266.785,178.072 263.5,178.5C 263.333,164.163 263.5,149.829 264,135.5C 267.446,122.651 275.28,114.151 287.5,110C 286.934,110.995 286.267,111.828 285.5,112.5 Z"/></g>
<g><path style="opacity:1" fill="#3085cc" d="M 285.5,112.5 C 282.983,117.214 281.15,122.214 280,127.5C 279.667,142.833 279.333,158.167 279,173.5C 276.913,174.397 274.746,175.064 272.5,175.5C 271.34,162.34 271.173,149.006 272,135.5C 274.179,126.324 278.513,118.324 285,111.5C 285.399,111.728 285.565,112.062 285.5,112.5 Z"/></g>
<g><path style="opacity:1" fill="#010305" d="M 322.5,119.5 C 338.689,119.177 345.189,126.844 342,142.5C 336.039,151.283 328.206,153.449 318.5,149C 308.083,137.501 309.416,127.667 322.5,119.5 Z"/></g>
<g><path style="opacity:1" fill="#2873b5" d="M 307.5,183.5 C 335.19,180.67 361.857,184.503 387.5,195C 384.2,202.476 378.534,206.643 370.5,207.5C 361.926,205.032 353.259,202.866 344.5,201C 325.226,197.579 306.559,199.579 288.5,207C 283.889,208.007 279.555,207.34 275.5,205C 272.112,202.214 269.446,198.881 267.5,195C 280.449,189.357 293.782,185.524 307.5,183.5 Z"/></g>
<g><path style="opacity:1" fill="#eda970" d="M 242.5,207.5 C 244.167,207.5 245.833,207.5 247.5,207.5C 247.5,218.167 247.5,228.833 247.5,239.5C 233.073,236.651 228.573,228.317 234,214.5C 236.441,211.546 239.275,209.213 242.5,207.5 Z"/></g>
<g><path style="opacity:1" fill="#eda970" d="M 407.5,207.5 C 421.927,210.349 426.427,218.683 421,232.5C 417.666,237.084 413.166,239.417 407.5,239.5C 407.5,228.833 407.5,218.167 407.5,207.5 Z"/></g>
<g><path style="opacity:1" fill="#eca970" d="M 272.5,221.5 C 269.692,248.228 278.359,270.561 298.5,288.5C 271.094,272.345 259.761,248.345 264.5,216.5C 267.227,218.259 269.894,219.926 272.5,221.5 Z"/></g>
<g><path style="opacity:1" fill="#f7c286" d="M 298.5,288.5 C 278.359,270.561 269.692,248.228 272.5,221.5C 277.683,223.35 283.017,223.85 288.5,223C 313.867,213.07 339.2,213.07 364.5,223C 374.156,224.665 382.823,222.499 390.5,216.5C 395.256,249.822 382.923,274.322 353.5,290C 334.881,297.815 316.547,297.315 298.5,288.5 Z"/></g>
<g><path style="opacity:1" fill="#e15039" d="M 93.5,263.5 C 133.168,263.333 172.835,263.5 212.5,264C 222.776,265.466 230.776,270.466 236.5,279C 184.501,279.5 132.501,279.667 80.5,279.5C 83.3552,272.977 87.6885,267.644 93.5,263.5 Z"/></g>
<g><path style="opacity:1" fill="#be3b30" d="M 93.5,263.5 C 87.6885,267.644 83.3552,272.977 80.5,279.5C 75.8215,279.666 71.1548,279.499 66.5,279C 73.0805,269.707 82.0805,264.541 93.5,263.5 Z"/></g>
<g><path style="opacity:1" fill="#3a95db" d="M 75.5,295.5 C 74.4558,311.163 73.4558,326.829 72.5,342.5C 104.167,342.5 135.833,342.5 167.5,342.5C 132.669,343.333 97.6691,343.833 62.5,344C 60.8988,344.273 59.3988,344.773 58,345.5C 58.0924,328.829 58.5924,312.162 59.5,295.5C 64.8333,295.5 70.1667,295.5 75.5,295.5 Z"/></g>
<g><path style="opacity:1" fill="#40a4ee" d="M 75.5,295.5 C 131.5,295.5 187.5,295.5 243.5,295.5C 243.83,301.868 243.496,308.202 242.5,314.5C 235.917,316.479 229.251,318.146 222.5,319.5C 217.413,315.97 211.746,313.47 205.5,312C 189.267,309.865 177.434,316.032 170,330.5C 168.228,334.313 167.395,338.313 167.5,342.5C 135.833,342.5 104.167,342.5 72.5,342.5C 73.4558,326.829 74.4558,311.163 75.5,295.5 Z"/></g>
<g><path style="opacity:1" fill="#eaa86f" d="M 303.5,308.5 C 304.397,318.629 308.731,326.962 316.5,333.5C 303.396,328.731 296.396,319.397 295.5,305.5C 298.542,305.733 301.208,306.733 303.5,308.5 Z"/></g>
<g><path style="opacity:1" fill="#f5c084" d="M 316.5,333.5 C 308.731,326.962 304.397,318.629 303.5,308.5C 319.191,312.541 334.858,312.375 350.5,308C 353.512,307.22 356.345,306.053 359,304.5C 358.247,320.936 349.747,331.102 333.5,335C 327.65,335.948 321.983,335.448 316.5,333.5 Z"/></g>
<g><path style="opacity:1" fill="#cacaca" d="M 277.5,321.5 C 279.199,321.34 280.866,321.506 282.5,322C 293.651,343.412 311.318,353.078 335.5,351C 352.572,347.249 364.906,337.582 372.5,322C 376.136,322.319 379.803,322.819 383.5,323.5C 383.5,348.833 383.5,374.167 383.5,399.5C 346.167,399.5 308.833,399.5 271.5,399.5C 271.167,374.158 271.5,348.825 272.5,323.5C 274.336,322.972 276.003,322.306 277.5,321.5 Z"/></g>
<g><path style="opacity:1" fill="#3a97df" d="M 231.5,487.5 C 231.333,469.83 231.5,452.164 232,434.5C 236.239,401.825 240.573,369.158 245,336.5C 245.379,333.97 246.213,331.637 247.5,329.5C 249.865,328.992 252.199,328.325 254.5,327.5C 255.024,355.889 255.858,384.222 257,412.5C 257.903,413.701 259.069,414.535 260.5,415C 304.833,415.667 349.167,415.667 393.5,415C 395.329,414.727 396.829,413.893 398,412.5C 399.475,384.564 399.975,356.564 399.5,328.5C 405.866,329.675 412.2,331.008 418.5,332.5C 422.584,366.168 426.75,399.835 431,433.5C 431.5,451.497 431.667,469.497 431.5,487.5C 364.833,487.5 298.167,487.5 231.5,487.5 Z"/></g>
<g><path style="opacity:1" fill="#2872b4" d="M 247.5,329.5 C 246.213,331.637 245.379,333.97 245,336.5C 240.573,369.158 236.239,401.825 232,434.5C 231.5,452.164 231.333,469.83 231.5,487.5C 228.833,487.5 226.167,487.5 223.5,487.5C 223.333,469.497 223.5,451.497 224,433.5C 227.973,399.544 232.473,365.711 237.5,332C 240.852,331.162 244.185,330.329 247.5,329.5 Z"/></g>
<g><path style="opacity:1" fill="#bf3b30" d="M 28.5,335.5 C 32.8333,335.5 37.1667,335.5 41.5,335.5C 40.9022,340.813 40.5688,346.146 40.5,351.5C 36.4862,351.666 32.4862,351.499 28.5,351C 21.8881,345.836 21.8881,340.67 28.5,335.5 Z"/></g>
<g><path style="opacity:1" fill="#c9c9c9" d="M 434.5,336.5 C 463.19,343.023 480.69,360.69 487,389.5C 487.5,422.165 487.667,454.832 487.5,487.5C 474.167,487.5 460.833,487.5 447.5,487.5C 447.667,470.497 447.5,453.497 447,436.5C 442.922,403.142 438.756,369.808 434.5,336.5 Z"/></g>
<g><path style="opacity:1" fill="#b0b0b0" d="M 217.5,337.5 C 201.044,348.8 190.211,364.134 185,383.5C 183.534,418.126 183.034,452.793 183.5,487.5C 178.167,487.5 172.833,487.5 167.5,487.5C 167.333,454.832 167.5,422.165 168,389.5C 173.804,361.865 190.304,344.532 217.5,337.5 Z"/></g>
<g><path style="opacity:1" fill="#c9c9c9" d="M 183.5,487.5 C 183.034,452.793 183.534,418.126 185,383.5C 190.211,364.134 201.044,348.8 217.5,337.5C 218.209,336.596 219.209,336.263 220.5,336.5C 216.334,369.824 212.168,403.158 208,436.5C 207.5,453.497 207.333,470.497 207.5,487.5C 199.5,487.5 191.5,487.5 183.5,487.5 Z"/></g>
<g><path style="opacity:1" fill="#e05039" d="M 94.5,415.5 C 83.3087,416.737 73.3087,414.071 64.5,407.5C 78.5301,406.137 86.1968,398.47 87.5,384.5C 87.1923,376.719 83.859,370.553 77.5,366C 73.0474,364.186 68.714,362.186 64.5,360C 97.1667,359.333 129.833,359.333 162.5,360C 156.063,369.48 152.729,379.98 152.5,391.5C 140.424,391.062 128.424,391.562 116.5,393C 105.612,397.055 98.2782,404.555 94.5,415.5 Z"/></g>
<g><path style="opacity:1" fill="#e5b93e" d="M 49.5,371.5 C 46.8988,377.347 47.2321,383.347 50.5,389.5C 56.1278,390.495 61.7945,390.829 67.5,390.5C 58.3483,391.494 49.015,391.827 39.5,391.5C 39.4517,383.977 41.785,377.311 46.5,371.5C 47.6136,370.224 48.6136,370.224 49.5,371.5 Z"/></g>
<g><path style="opacity:1" fill="#f3d449" d="M 49.5,371.5 C 56.5029,374.084 63.3362,377.084 70,380.5C 71.373,382.695 71.7063,385.029 71,387.5C 70.5776,389.426 69.4109,390.426 67.5,390.5C 61.7945,390.829 56.1278,390.495 50.5,389.5C 47.2321,383.347 46.8988,377.347 49.5,371.5 Z"/></g>
<g><path style="opacity:1" fill="#c13c31" d="M 64.5,407.5 C 73.3087,414.071 83.3087,416.737 94.5,415.5C 93.3065,418.052 91.9732,420.552 90.5,423C 73.5033,423.5 56.5033,423.667 39.5,423.5C 39.5,418.167 39.5,412.833 39.5,407.5C 47.8333,407.5 56.1667,407.5 64.5,407.5 Z"/></g>
<g><path style="opacity:1" fill="#44565e" d="M 122.5,407.5 C 132.167,407.5 141.833,407.5 151.5,407.5C 151.5,412.833 151.5,418.167 151.5,423.5C 137.163,423.667 122.829,423.5 108.5,423C 110.985,415.69 115.652,410.523 122.5,407.5 Z"/></g>
<g><path style="opacity:1" fill="#455860" d="M 34.5,439.5 C 36.2434,443.389 39.2434,445.889 43.5,447C 79.4985,447.5 115.498,447.667 151.5,447.5C 151.5,450.167 151.5,452.833 151.5,455.5C 110.499,455.667 69.4986,455.5 28.5,455C 21.9254,449.867 21.9254,444.867 28.5,440C 30.4727,439.505 32.4727,439.338 34.5,439.5 Z"/></g>
<g><path style="opacity:1" fill="#576d79" d="M 34.5,439.5 C 73.5,439.5 112.5,439.5 151.5,439.5C 151.5,442.167 151.5,444.833 151.5,447.5C 115.498,447.667 79.4985,447.5 43.5,447C 39.2434,445.889 36.2434,443.389 34.5,439.5 Z"/></g>
<g><path style="opacity:1" fill="#000000" d="M 255.5,455.5 C 303.5,455.5 351.5,455.5 399.5,455.5C 399.5,460.833 399.5,466.167 399.5,471.5C 351.5,471.5 303.5,471.5 255.5,471.5C 255.5,466.167 255.5,460.833 255.5,455.5 Z"/></g>
<g><path style="opacity:1" fill="#283338" d="M 39.5,471.5 C 50.1667,471.5 60.8333,471.5 71.5,471.5C 73.4191,484.414 67.9191,489.747 55,487.5C 42.6342,489.3 37.4675,483.966 39.5,471.5 Z"/></g>
</svg>
