<?xml version="1.0" encoding="UTF-8"?>
<!DOCTYPE svg PUBLIC "-//W3C//DTD SVG 1.1//EN" "http://www.w3.org/Graphics/SVG/1.1/DTD/svg11.dtd">
<svg xmlns="http://www.w3.org/2000/svg" version="1.1" width="512px" height="512px" style="shape-rendering:geometricPrecision; text-rendering:geometricPrecision; image-rendering:optimizeQuality; fill-rule:evenodd; clip-rule:evenodd" xmlns:xlink="http://www.w3.org/1999/xlink">
<g><path style="opacity:0.954" fill="#030000" d="M 244.5,0.5 C 319,-0.503779 377.167,29.4962 419,90.5C 444.271,132.521 453.271,177.855 446,226.5C 438.089,271.313 422.089,312.98 398,351.5C 360.196,410.663 314.362,463.163 260.5,509C 257.167,511 253.833,511 250.5,509C 196.638,463.163 150.804,410.663 113,351.5C 88.9106,312.98 72.9106,271.313 65,226.5C 55.2533,152.045 78.7533,90.5452 135.5,42C 167.735,17.4213 204.069,3.58795 244.5,0.5 Z"/></g>
<g><path style="opacity:1" fill="#fd4655" d="M 234.5,15.5 C 312.489,10.7385 371.656,41.4052 412,107.5C 429.619,139.648 436.619,173.981 433,210.5C 428.313,251.23 415.98,289.563 396,325.5C 358.995,389.372 312.161,445.372 255.5,493.5C 198.839,445.372 152.005,389.372 115,325.5C 95.0258,289.579 82.6925,251.246 78,210.5C 73.9466,134.094 104.447,76.2603 169.5,37C 190.06,26.0909 211.726,18.9242 234.5,15.5 Z"/></g>
<g><path style="opacity:1" fill="#040303" d="M 242.5,81.5 C 302.486,79.2175 343.986,105.551 367,160.5C 380.835,210.002 369.335,252.502 332.5,288C 298.763,314.614 261.097,322.281 219.5,311C 173.602,293.767 146.769,260.934 139,212.5C 135.158,158.747 156.658,118.913 203.5,93C 216,86.9951 229,83.1617 242.5,81.5 Z"/></g>
<g><path style="opacity:1" fill="#d2f1f4" d="M 239.5,95.5 C 293.181,91.5717 331.014,113.905 353,162.5C 365.212,200.365 359.046,234.865 334.5,266C 333.668,266.688 333.002,266.521 332.5,265.5C 323.067,244.899 307.734,230.732 286.5,223C 306.107,204.363 309.94,182.863 298,158.5C 285.868,140.854 269.035,133.021 247.5,135C 217.235,143.351 203.735,163.185 207,194.5C 209.659,205.992 215.492,215.492 224.5,223C 202.905,231.095 187.239,245.595 177.5,266.5C 160.48,246.624 151.814,223.458 151.5,197C 154.299,155.378 173.966,124.712 210.5,105C 219.988,100.892 229.655,97.7256 239.5,95.5 Z"/></g>
<g><path style="opacity:1" fill="#f2c4ae" d="M 248.5,148.5 C 268.9,146.939 282.733,155.605 290,174.5C 293.582,196.849 284.749,211.683 263.5,219C 239.929,221.762 225.429,211.595 220,188.5C 219.435,167.954 228.935,154.62 248.5,148.5 Z"/></g>
<g><path style="opacity:1" fill="#fcdf7f" d="M 240.5,233.5 C 260.72,230.758 279.72,234.258 297.5,244C 308.315,251.479 316.148,261.312 321,273.5C 321.808,275.579 321.641,277.579 320.5,279.5C 282.995,306.878 243.662,309.712 202.5,288C 198.361,285.361 194.361,282.528 190.5,279.5C 190.167,278.5 189.833,277.5 189.5,276.5C 198.32,252.338 215.32,238.005 240.5,233.5 Z"/></g>
</svg>
